<mxfile host="app.diagrams.net" modified="2021-11-07T20:31:05.464Z" agent="5.0 (X11; Linux x86_64) AppleWebKit/537.36 (KHTML, like Gecko) Chrome/94.0.4606.54 Safari/537.36" etag="9TihtI08bHY56NeNDmAK" version="15.7.0" type="github" pages="10">
  <diagram id="F2RWLyCxq9ij2d-OzNsR" name="overall-workflow">
    <mxGraphModel dx="1422" dy="715" grid="1" gridSize="10" guides="1" tooltips="1" connect="1" arrows="1" fold="1" page="1" pageScale="1" pageWidth="827" pageHeight="1169" math="0" shadow="0">
      <root>
        <mxCell id="Fkop1N2gvcuRmGXoB3iX-0" />
        <mxCell id="Fkop1N2gvcuRmGXoB3iX-1" parent="Fkop1N2gvcuRmGXoB3iX-0" />
        <mxCell id="Fkop1N2gvcuRmGXoB3iX-2" value="" style="edgeStyle=orthogonalEdgeStyle;rounded=0;orthogonalLoop=1;jettySize=auto;html=1;strokeWidth=1;" edge="1" parent="Fkop1N2gvcuRmGXoB3iX-1" source="Fkop1N2gvcuRmGXoB3iX-3" target="Fkop1N2gvcuRmGXoB3iX-7">
          <mxGeometry relative="1" as="geometry" />
        </mxCell>
        <mxCell id="Fkop1N2gvcuRmGXoB3iX-3" value="" style="shape=datastore;whiteSpace=wrap;html=1;fillColor=#dae8fc;strokeColor=#6c8ebf;gradientColor=#7ea6e0;" vertex="1" parent="Fkop1N2gvcuRmGXoB3iX-1">
          <mxGeometry x="225" y="250" width="120" height="130" as="geometry" />
        </mxCell>
        <mxCell id="Fkop1N2gvcuRmGXoB3iX-4" value="H2.xyz" style="shape=document;whiteSpace=wrap;html=1;boundedLbl=1;" vertex="1" parent="Fkop1N2gvcuRmGXoB3iX-1">
          <mxGeometry x="235" y="300" width="80" height="30" as="geometry" />
        </mxCell>
        <mxCell id="Fkop1N2gvcuRmGXoB3iX-5" value="C2H4.xyz" style="shape=document;whiteSpace=wrap;html=1;boundedLbl=1;" vertex="1" parent="Fkop1N2gvcuRmGXoB3iX-1">
          <mxGeometry x="245" y="320" width="80" height="30" as="geometry" />
        </mxCell>
        <mxCell id="Fkop1N2gvcuRmGXoB3iX-6" value="C2H6.xyz" style="shape=document;whiteSpace=wrap;html=1;boundedLbl=1;" vertex="1" parent="Fkop1N2gvcuRmGXoB3iX-1">
          <mxGeometry x="255" y="340" width="80" height="30" as="geometry" />
        </mxCell>
        <mxCell id="J-5a_hR2RxlAyU-Ghf9x-9" style="edgeStyle=none;rounded=0;orthogonalLoop=1;jettySize=auto;html=1;strokeWidth=1;" edge="1" parent="Fkop1N2gvcuRmGXoB3iX-1" source="Fkop1N2gvcuRmGXoB3iX-7" target="J-5a_hR2RxlAyU-Ghf9x-0">
          <mxGeometry relative="1" as="geometry" />
        </mxCell>
        <mxCell id="Fkop1N2gvcuRmGXoB3iX-7" value="Calculate molecule energies" style="shape=process;whiteSpace=wrap;html=1;backgroundOutline=1;fillColor=#d5e8d4;strokeColor=#82b366;gradientColor=#97d077;" vertex="1" parent="Fkop1N2gvcuRmGXoB3iX-1">
          <mxGeometry x="385" y="285" width="120" height="60" as="geometry" />
        </mxCell>
        <mxCell id="Fkop1N2gvcuRmGXoB3iX-8" value="Molecule structure database" style="text;html=1;strokeColor=none;fillColor=none;align=center;verticalAlign=middle;whiteSpace=wrap;rounded=0;" vertex="1" parent="Fkop1N2gvcuRmGXoB3iX-1">
          <mxGeometry x="225" y="210" width="115" height="30" as="geometry" />
        </mxCell>
        <mxCell id="J-5a_hR2RxlAyU-Ghf9x-8" style="edgeStyle=none;rounded=0;orthogonalLoop=1;jettySize=auto;html=1;" edge="1" parent="Fkop1N2gvcuRmGXoB3iX-1" source="Fkop1N2gvcuRmGXoB3iX-9" target="J-5a_hR2RxlAyU-Ghf9x-2">
          <mxGeometry relative="1" as="geometry" />
        </mxCell>
        <mxCell id="Fkop1N2gvcuRmGXoB3iX-9" value="Calculate reaction energies" style="shape=process;whiteSpace=wrap;html=1;backgroundOutline=1;fillColor=#d5e8d4;strokeColor=#82b366;gradientColor=#97d077;" vertex="1" parent="Fkop1N2gvcuRmGXoB3iX-1">
          <mxGeometry x="540" y="285" width="120" height="60" as="geometry" />
        </mxCell>
        <mxCell id="Fkop1N2gvcuRmGXoB3iX-11" value="Higher scale simulator" style="shape=parallelogram;perimeter=parallelogramPerimeter;whiteSpace=wrap;html=1;fixedSize=1;fillColor=#e6d0de;strokeColor=#996185;gradientColor=#d5739d;" vertex="1" parent="Fkop1N2gvcuRmGXoB3iX-1">
          <mxGeometry x="690" y="285" width="120" height="60" as="geometry" />
        </mxCell>
        <mxCell id="bYP7Ga5nupNlTa2AAA1G-3" value="Allice" style="image;html=1;image=img/lib/clip_art/people/Suit_Woman_Green_128x128.png" vertex="1" parent="Fkop1N2gvcuRmGXoB3iX-1">
          <mxGeometry x="405" y="180" width="80" height="80" as="geometry" />
        </mxCell>
        <mxCell id="bYP7Ga5nupNlTa2AAA1G-4" value="Bob" style="image;html=1;image=img/lib/clip_art/people/Worker_Black_128x128.png" vertex="1" parent="Fkop1N2gvcuRmGXoB3iX-1">
          <mxGeometry x="560" y="180" width="80" height="80" as="geometry" />
        </mxCell>
        <mxCell id="bYP7Ga5nupNlTa2AAA1G-5" value="Cyril" style="image;html=1;image=img/lib/clip_art/people/Tech_Man_128x128.png" vertex="1" parent="Fkop1N2gvcuRmGXoB3iX-1">
          <mxGeometry x="720" y="180" width="80" height="80" as="geometry" />
        </mxCell>
        <mxCell id="J-5a_hR2RxlAyU-Ghf9x-11" value="??" style="edgeStyle=orthogonalEdgeStyle;rounded=0;orthogonalLoop=1;jettySize=auto;html=1;exitX=0.75;exitY=1;exitDx=0;exitDy=0;entryX=0.25;entryY=1;entryDx=0;entryDy=0;strokeWidth=1;curved=1;dashed=1;" edge="1" parent="Fkop1N2gvcuRmGXoB3iX-1" source="J-5a_hR2RxlAyU-Ghf9x-0" target="J-5a_hR2RxlAyU-Ghf9x-1">
          <mxGeometry relative="1" as="geometry" />
        </mxCell>
        <mxCell id="J-5a_hR2RxlAyU-Ghf9x-0" value="Molecule" style="swimlane;fillColor=#f5f5f5;gradientColor=#b3b3b3;strokeColor=#666666;" vertex="1" collapsed="1" parent="Fkop1N2gvcuRmGXoB3iX-1">
          <mxGeometry x="420" y="370" width="85" height="23" as="geometry">
            <mxRectangle x="395" y="360" width="110" height="40" as="alternateBounds" />
          </mxGeometry>
        </mxCell>
        <mxCell id="J-5a_hR2RxlAyU-Ghf9x-5" style="edgeStyle=none;rounded=0;orthogonalLoop=1;jettySize=auto;html=1;endArrow=classic;" edge="1" parent="Fkop1N2gvcuRmGXoB3iX-1" source="J-5a_hR2RxlAyU-Ghf9x-1" target="Fkop1N2gvcuRmGXoB3iX-9">
          <mxGeometry relative="1" as="geometry" />
        </mxCell>
        <mxCell id="J-5a_hR2RxlAyU-Ghf9x-1" value="Substance" style="swimlane;fillColor=#f5f5f5;gradientColor=#b3b3b3;strokeColor=#666666;" vertex="1" collapsed="1" parent="Fkop1N2gvcuRmGXoB3iX-1">
          <mxGeometry x="520" y="370" width="90" height="23" as="geometry">
            <mxRectangle x="395" y="360" width="110" height="40" as="alternateBounds" />
          </mxGeometry>
        </mxCell>
        <mxCell id="J-5a_hR2RxlAyU-Ghf9x-10" style="edgeStyle=none;rounded=0;orthogonalLoop=1;jettySize=auto;html=1;strokeWidth=1;" edge="1" parent="Fkop1N2gvcuRmGXoB3iX-1" source="J-5a_hR2RxlAyU-Ghf9x-2" target="Fkop1N2gvcuRmGXoB3iX-11">
          <mxGeometry relative="1" as="geometry" />
        </mxCell>
        <mxCell id="J-5a_hR2RxlAyU-Ghf9x-2" value="Reaction" style="swimlane;fillColor=#f5f5f5;gradientColor=#b3b3b3;strokeColor=#666666;" vertex="1" collapsed="1" parent="Fkop1N2gvcuRmGXoB3iX-1">
          <mxGeometry x="630" y="370" width="90" height="23" as="geometry">
            <mxRectangle x="395" y="360" width="110" height="40" as="alternateBounds" />
          </mxGeometry>
        </mxCell>
      </root>
    </mxGraphModel>
  </diagram>
  <diagram id="1swjx83_njB-zcwLbQqr" name="workflow1">
    <mxGraphModel dx="1185" dy="596" grid="1" gridSize="10" guides="1" tooltips="1" connect="1" arrows="1" fold="1" page="1" pageScale="1" pageWidth="827" pageHeight="1169" math="0" shadow="0">
      <root>
        <mxCell id="HiDf1xTZYxV6IvTLhik8-0" />
        <mxCell id="HiDf1xTZYxV6IvTLhik8-1" parent="HiDf1xTZYxV6IvTLhik8-0" />
        <mxCell id="bCOBlgePEJ7Q38sahkIm-23" style="rounded=0;orthogonalLoop=1;jettySize=auto;html=1;strokeWidth=1;" edge="1" parent="HiDf1xTZYxV6IvTLhik8-1" source="bCOBlgePEJ7Q38sahkIm-1" target="bCOBlgePEJ7Q38sahkIm-20">
          <mxGeometry relative="1" as="geometry" />
        </mxCell>
        <mxCell id="bCOBlgePEJ7Q38sahkIm-1" value="Molecule structure DB" style="shape=datastore;whiteSpace=wrap;html=1;fillColor=#dae8fc;strokeColor=#6c8ebf;gradientColor=#7ea6e0;" vertex="1" parent="HiDf1xTZYxV6IvTLhik8-1">
          <mxGeometry x="140" y="370" width="100" height="70" as="geometry" />
        </mxCell>
        <mxCell id="bCOBlgePEJ7Q38sahkIm-6" value="molecular_&lt;br&gt;energies.py" style="shape=process;whiteSpace=wrap;html=1;backgroundOutline=1;fillColor=#d5e8d4;strokeColor=#82b366;gradientColor=#97d077;" vertex="1" parent="HiDf1xTZYxV6IvTLhik8-1">
          <mxGeometry x="260" y="390" width="110" height="35" as="geometry" />
        </mxCell>
        <mxCell id="bCOBlgePEJ7Q38sahkIm-25" style="edgeStyle=none;rounded=0;orthogonalLoop=1;jettySize=auto;html=1;dashed=1;strokeWidth=1;endArrow=none;endFill=0;" edge="1" parent="HiDf1xTZYxV6IvTLhik8-1" source="bCOBlgePEJ7Q38sahkIm-15" target="bCOBlgePEJ7Q38sahkIm-20">
          <mxGeometry relative="1" as="geometry" />
        </mxCell>
        <mxCell id="bCOBlgePEJ7Q38sahkIm-15" value="Molecule" style="swimlane;fillColor=#f5f5f5;gradientColor=#b3b3b3;strokeColor=#666666;" vertex="1" collapsed="1" parent="HiDf1xTZYxV6IvTLhik8-1">
          <mxGeometry x="387.5" y="340" width="85" height="23" as="geometry">
            <mxRectangle x="395" y="360" width="110" height="40" as="alternateBounds" />
          </mxGeometry>
        </mxCell>
        <mxCell id="bCOBlgePEJ7Q38sahkIm-19" value="Reaction" style="swimlane;fillColor=#f5f5f5;gradientColor=#b3b3b3;strokeColor=#666666;" vertex="1" collapsed="1" parent="HiDf1xTZYxV6IvTLhik8-1">
          <mxGeometry x="645" y="340" width="90" height="23" as="geometry">
            <mxRectangle x="395" y="360" width="110" height="40" as="alternateBounds" />
          </mxGeometry>
        </mxCell>
        <mxCell id="bCOBlgePEJ7Q38sahkIm-24" value="" style="group" vertex="1" connectable="0" parent="HiDf1xTZYxV6IvTLhik8-1">
          <mxGeometry x="400" y="390" width="80" height="50" as="geometry" />
        </mxCell>
        <mxCell id="bCOBlgePEJ7Q38sahkIm-20" value="" style="shape=document;whiteSpace=wrap;html=1;boundedLbl=1;fillColor=#dae8fc;gradientColor=#7ea6e0;strokeColor=#6c8ebf;" vertex="1" parent="bCOBlgePEJ7Q38sahkIm-24">
          <mxGeometry width="60" height="30" as="geometry" />
        </mxCell>
        <mxCell id="bCOBlgePEJ7Q38sahkIm-21" value="" style="shape=document;whiteSpace=wrap;html=1;boundedLbl=1;fillColor=#dae8fc;gradientColor=#7ea6e0;strokeColor=#6c8ebf;" vertex="1" parent="bCOBlgePEJ7Q38sahkIm-24">
          <mxGeometry x="10" y="10" width="60" height="30" as="geometry" />
        </mxCell>
        <mxCell id="bCOBlgePEJ7Q38sahkIm-22" value="&lt;font style=&quot;font-size: 10px&quot;&gt;Instance&lt;/font&gt;" style="shape=document;whiteSpace=wrap;html=1;boundedLbl=1;fillColor=#dae8fc;gradientColor=#7ea6e0;strokeColor=#6c8ebf;" vertex="1" parent="bCOBlgePEJ7Q38sahkIm-24">
          <mxGeometry x="20" y="20" width="60" height="30" as="geometry" />
        </mxCell>
        <mxCell id="bCOBlgePEJ7Q38sahkIm-29" style="edgeStyle=none;rounded=0;orthogonalLoop=1;jettySize=auto;html=1;dashed=1;endArrow=none;endFill=0;strokeWidth=1;" edge="1" parent="HiDf1xTZYxV6IvTLhik8-1" source="bCOBlgePEJ7Q38sahkIm-26" target="bCOBlgePEJ7Q38sahkIm-19">
          <mxGeometry relative="1" as="geometry" />
        </mxCell>
        <mxCell id="bCOBlgePEJ7Q38sahkIm-26" value="&lt;font style=&quot;font-size: 10px&quot;&gt;Instance&lt;/font&gt;" style="shape=document;whiteSpace=wrap;html=1;boundedLbl=1;fillColor=#dae8fc;gradientColor=#7ea6e0;strokeColor=#6c8ebf;" vertex="1" parent="HiDf1xTZYxV6IvTLhik8-1">
          <mxGeometry x="660" y="390" width="60" height="30" as="geometry" />
        </mxCell>
        <mxCell id="bCOBlgePEJ7Q38sahkIm-28" style="edgeStyle=none;rounded=0;orthogonalLoop=1;jettySize=auto;html=1;endArrow=classic;strokeWidth=1;" edge="1" parent="HiDf1xTZYxV6IvTLhik8-1" target="bCOBlgePEJ7Q38sahkIm-26">
          <mxGeometry relative="1" as="geometry">
            <mxPoint x="470" y="405" as="sourcePoint" />
          </mxGeometry>
        </mxCell>
        <mxCell id="XYqVEnNxBXLvwVIXQUVf-0" value="calculate_&lt;br&gt;reactions.py" style="shape=process;whiteSpace=wrap;html=1;backgroundOutline=1;fillColor=#d5e8d4;strokeColor=#82b366;gradientColor=#97d077;" vertex="1" parent="HiDf1xTZYxV6IvTLhik8-1">
          <mxGeometry x="510" y="390" width="110" height="35" as="geometry" />
        </mxCell>
        <mxCell id="oRbadusCyRGQ5F7R26IT-0" style="edgeStyle=none;rounded=0;orthogonalLoop=1;jettySize=auto;html=1;endArrow=classic;strokeWidth=1;" edge="1" parent="HiDf1xTZYxV6IvTLhik8-1" source="bCOBlgePEJ7Q38sahkIm-26">
          <mxGeometry relative="1" as="geometry">
            <mxPoint x="720" y="404.76" as="sourcePoint" />
            <mxPoint x="760" y="405" as="targetPoint" />
          </mxGeometry>
        </mxCell>
      </root>
    </mxGraphModel>
  </diagram>
  <diagram id="P4yoYD5UT8gNa8kMJmkO" name="workflow2">
    <mxGraphModel dx="1422" dy="715" grid="1" gridSize="10" guides="1" tooltips="1" connect="1" arrows="1" fold="1" page="1" pageScale="1" pageWidth="827" pageHeight="1169" math="0" shadow="0">
      <root>
        <mxCell id="cFgEa3E6WkikDPclgjx3-0" />
        <mxCell id="cFgEa3E6WkikDPclgjx3-1" parent="cFgEa3E6WkikDPclgjx3-0" />
        <mxCell id="soiHzIUpeBGoICOmNecI-6" value="" style="group" vertex="1" connectable="0" parent="cFgEa3E6WkikDPclgjx3-1">
          <mxGeometry x="212.5" y="250" width="90" height="65" as="geometry" />
        </mxCell>
        <mxCell id="soiHzIUpeBGoICOmNecI-7" value="" style="shape=document;whiteSpace=wrap;html=1;boundedLbl=1;fillColor=#dae8fc;gradientColor=#7ea6e0;strokeColor=#6c8ebf;" vertex="1" parent="soiHzIUpeBGoICOmNecI-6">
          <mxGeometry width="60" height="30" as="geometry" />
        </mxCell>
        <mxCell id="soiHzIUpeBGoICOmNecI-8" value="" style="shape=document;whiteSpace=wrap;html=1;boundedLbl=1;fillColor=#dae8fc;gradientColor=#7ea6e0;strokeColor=#6c8ebf;" vertex="1" parent="soiHzIUpeBGoICOmNecI-6">
          <mxGeometry x="10" y="10" width="60" height="30" as="geometry" />
        </mxCell>
        <mxCell id="soiHzIUpeBGoICOmNecI-9" value="&lt;font style=&quot;font-size: 10px&quot;&gt;Instance&lt;/font&gt;" style="shape=document;whiteSpace=wrap;html=1;boundedLbl=1;fillColor=#dae8fc;gradientColor=#7ea6e0;strokeColor=#6c8ebf;" vertex="1" parent="soiHzIUpeBGoICOmNecI-6">
          <mxGeometry x="20" y="20" width="60" height="30" as="geometry" />
        </mxCell>
        <mxCell id="soiHzIUpeBGoICOmNecI-3" style="edgeStyle=none;rounded=0;orthogonalLoop=1;jettySize=auto;html=1;dashed=1;strokeWidth=1;endArrow=none;endFill=0;" edge="1" parent="cFgEa3E6WkikDPclgjx3-1" source="soiHzIUpeBGoICOmNecI-4" target="soiHzIUpeBGoICOmNecI-7">
          <mxGeometry relative="1" as="geometry" />
        </mxCell>
        <mxCell id="soiHzIUpeBGoICOmNecI-4" value="Molecule" style="swimlane;fillColor=#f5f5f5;gradientColor=#b3b3b3;strokeColor=#666666;" vertex="1" collapsed="1" parent="cFgEa3E6WkikDPclgjx3-1">
          <mxGeometry x="200" y="200" width="85" height="23" as="geometry">
            <mxRectangle x="395" y="360" width="110" height="40" as="alternateBounds" />
          </mxGeometry>
        </mxCell>
        <mxCell id="soiHzIUpeBGoICOmNecI-5" value="Reaction" style="swimlane;fillColor=#f5f5f5;gradientColor=#b3b3b3;strokeColor=#666666;" vertex="1" collapsed="1" parent="cFgEa3E6WkikDPclgjx3-1">
          <mxGeometry x="607.5" y="200" width="90" height="23" as="geometry">
            <mxRectangle x="395" y="360" width="110" height="40" as="alternateBounds" />
          </mxGeometry>
        </mxCell>
        <mxCell id="soiHzIUpeBGoICOmNecI-10" style="edgeStyle=none;rounded=0;orthogonalLoop=1;jettySize=auto;html=1;dashed=1;endArrow=none;endFill=0;strokeWidth=1;" edge="1" parent="cFgEa3E6WkikDPclgjx3-1" source="soiHzIUpeBGoICOmNecI-11" target="soiHzIUpeBGoICOmNecI-5">
          <mxGeometry relative="1" as="geometry" />
        </mxCell>
        <mxCell id="soiHzIUpeBGoICOmNecI-11" value="&lt;font style=&quot;font-size: 10px&quot;&gt;Instance&lt;/font&gt;" style="shape=document;whiteSpace=wrap;html=1;boundedLbl=1;fillColor=#dae8fc;gradientColor=#7ea6e0;strokeColor=#6c8ebf;" vertex="1" parent="cFgEa3E6WkikDPclgjx3-1">
          <mxGeometry x="622.5" y="250" width="60" height="30" as="geometry" />
        </mxCell>
        <mxCell id="soiHzIUpeBGoICOmNecI-12" style="edgeStyle=none;rounded=0;orthogonalLoop=1;jettySize=auto;html=1;endArrow=classic;strokeWidth=1;" edge="1" parent="cFgEa3E6WkikDPclgjx3-1" target="soiHzIUpeBGoICOmNecI-11">
          <mxGeometry relative="1" as="geometry">
            <mxPoint x="412.5" y="265.0000000000001" as="sourcePoint" />
          </mxGeometry>
        </mxCell>
        <mxCell id="soiHzIUpeBGoICOmNecI-13" value="calculate-reactions.py" style="shape=process;whiteSpace=wrap;html=1;backgroundOutline=1;fillColor=#d5e8d4;strokeColor=#82b366;gradientColor=#97d077;" vertex="1" parent="cFgEa3E6WkikDPclgjx3-1">
          <mxGeometry x="472.5" y="250" width="110" height="35" as="geometry" />
        </mxCell>
        <mxCell id="soiHzIUpeBGoICOmNecI-14" style="edgeStyle=none;rounded=0;orthogonalLoop=1;jettySize=auto;html=1;endArrow=classic;strokeWidth=1;" edge="1" parent="cFgEa3E6WkikDPclgjx3-1" source="soiHzIUpeBGoICOmNecI-11">
          <mxGeometry relative="1" as="geometry">
            <mxPoint x="682.5" y="264.76" as="sourcePoint" />
            <mxPoint x="722.5" y="265.0000000000001" as="targetPoint" />
          </mxGeometry>
        </mxCell>
        <mxCell id="soiHzIUpeBGoICOmNecI-15" style="edgeStyle=none;rounded=0;orthogonalLoop=1;jettySize=auto;html=1;dashed=1;strokeWidth=1;endArrow=none;endFill=0;" edge="1" parent="cFgEa3E6WkikDPclgjx3-1" source="soiHzIUpeBGoICOmNecI-16" target="soiHzIUpeBGoICOmNecI-18">
          <mxGeometry relative="1" as="geometry" />
        </mxCell>
        <mxCell id="soiHzIUpeBGoICOmNecI-16" value="Substance" style="swimlane;fillColor=#f5f5f5;gradientColor=#b3b3b3;strokeColor=#666666;" vertex="1" collapsed="1" parent="cFgEa3E6WkikDPclgjx3-1">
          <mxGeometry x="352.5" y="200" width="85" height="23" as="geometry">
            <mxRectangle x="395" y="360" width="110" height="40" as="alternateBounds" />
          </mxGeometry>
        </mxCell>
        <mxCell id="soiHzIUpeBGoICOmNecI-17" value="" style="group" vertex="1" connectable="0" parent="cFgEa3E6WkikDPclgjx3-1">
          <mxGeometry x="365" y="250" width="80" height="50" as="geometry" />
        </mxCell>
        <mxCell id="soiHzIUpeBGoICOmNecI-18" value="" style="shape=document;whiteSpace=wrap;html=1;boundedLbl=1;fillColor=#dae8fc;gradientColor=#7ea6e0;strokeColor=#6c8ebf;" vertex="1" parent="soiHzIUpeBGoICOmNecI-17">
          <mxGeometry width="60" height="30" as="geometry" />
        </mxCell>
        <mxCell id="soiHzIUpeBGoICOmNecI-19" value="" style="shape=document;whiteSpace=wrap;html=1;boundedLbl=1;fillColor=#dae8fc;gradientColor=#7ea6e0;strokeColor=#6c8ebf;" vertex="1" parent="soiHzIUpeBGoICOmNecI-17">
          <mxGeometry x="10" y="10" width="60" height="30" as="geometry" />
        </mxCell>
        <mxCell id="soiHzIUpeBGoICOmNecI-20" value="&lt;font style=&quot;font-size: 10px&quot;&gt;Instance&lt;/font&gt;" style="shape=document;whiteSpace=wrap;html=1;boundedLbl=1;fillColor=#dae8fc;gradientColor=#7ea6e0;strokeColor=#6c8ebf;" vertex="1" parent="soiHzIUpeBGoICOmNecI-17">
          <mxGeometry x="20" y="20" width="60" height="30" as="geometry" />
        </mxCell>
        <mxCell id="soiHzIUpeBGoICOmNecI-22" style="edgeStyle=orthogonalEdgeStyle;rounded=0;orthogonalLoop=1;jettySize=auto;html=1;fontSize=10;endArrow=classic;endFill=1;strokeWidth=1;curved=1;" edge="1" parent="cFgEa3E6WkikDPclgjx3-1" source="soiHzIUpeBGoICOmNecI-9" target="soiHzIUpeBGoICOmNecI-20">
          <mxGeometry relative="1" as="geometry">
            <Array as="points">
              <mxPoint x="262.5" y="340" />
              <mxPoint x="415.5" y="340" />
            </Array>
          </mxGeometry>
        </mxCell>
        <mxCell id="soiHzIUpeBGoICOmNecI-23" value="DLite mapping plugin" style="shape=process;whiteSpace=wrap;html=1;backgroundOutline=1;fillColor=#d5e8d4;strokeColor=#82b366;gradientColor=#97d077;" vertex="1" parent="cFgEa3E6WkikDPclgjx3-1">
          <mxGeometry x="282.5" y="330" width="110" height="35" as="geometry" />
        </mxCell>
      </root>
    </mxGraphModel>
  </diagram>
  <diagram id="mUDvIWAjRRROHr3WIJPz" name="Page-1">
    <mxGraphModel dx="813" dy="1578" grid="1" gridSize="10" guides="1" tooltips="1" connect="1" arrows="1" fold="1" page="1" pageScale="1" pageWidth="827" pageHeight="1169" math="0" shadow="0">
      <root>
        <mxCell id="0" />
        <mxCell id="1" parent="0" />
        <mxCell id="6pfhe1ZrEhAPHgNWeMOC-10" value="" style="edgeStyle=orthogonalEdgeStyle;rounded=0;orthogonalLoop=1;jettySize=auto;html=1;" parent="1" source="6pfhe1ZrEhAPHgNWeMOC-2" target="6pfhe1ZrEhAPHgNWeMOC-6" edge="1">
          <mxGeometry relative="1" as="geometry" />
        </mxCell>
        <mxCell id="6pfhe1ZrEhAPHgNWeMOC-2" value="" style="shape=datastore;whiteSpace=wrap;html=1;fillColor=#dae8fc;strokeColor=#6c8ebf;" parent="1" vertex="1">
          <mxGeometry x="225" y="250" width="120" height="130" as="geometry" />
        </mxCell>
        <mxCell id="6pfhe1ZrEhAPHgNWeMOC-3" value="H2.xyz" style="shape=document;whiteSpace=wrap;html=1;boundedLbl=1;" parent="1" vertex="1">
          <mxGeometry x="235" y="300" width="80" height="30" as="geometry" />
        </mxCell>
        <mxCell id="6pfhe1ZrEhAPHgNWeMOC-4" value="C2H4.xyz" style="shape=document;whiteSpace=wrap;html=1;boundedLbl=1;" parent="1" vertex="1">
          <mxGeometry x="245" y="320" width="80" height="30" as="geometry" />
        </mxCell>
        <mxCell id="6pfhe1ZrEhAPHgNWeMOC-5" value="C2H6.xyz" style="shape=document;whiteSpace=wrap;html=1;boundedLbl=1;" parent="1" vertex="1">
          <mxGeometry x="255" y="340" width="80" height="30" as="geometry" />
        </mxCell>
        <mxCell id="6pfhe1ZrEhAPHgNWeMOC-6" value="Molecular&lt;br&gt;energy&lt;br&gt;calculator" style="shape=process;whiteSpace=wrap;html=1;backgroundOutline=1;fillColor=#e1d5e7;strokeColor=#9673a6;" parent="1" vertex="1">
          <mxGeometry x="385" y="285" width="120" height="60" as="geometry" />
        </mxCell>
        <mxCell id="0UJp2AOILWBGRGOO-VMv-1" style="rounded=0;orthogonalLoop=1;jettySize=auto;html=1;dashed=1;strokeWidth=1;endFill=0;endArrow=none;" edge="1" parent="1" source="SICXoyykwlCavREzjVPe-114" target="6pfhe1ZrEhAPHgNWeMOC-6">
          <mxGeometry relative="1" as="geometry" />
        </mxCell>
        <mxCell id="SICXoyykwlCavREzjVPe-114" value="&lt;b&gt;Datamodel: Molecule&lt;/b&gt;&lt;br&gt;number_of_atoms&lt;br&gt;chemical_symbols&lt;br&gt;positions&lt;br&gt;energy" style="whiteSpace=wrap;html=1;rounded=0;align=left;strokeColor=#82b366;fillColor=#d5e8d4;" parent="1" vertex="1">
          <mxGeometry x="385" y="150" width="130" height="75" as="geometry" />
        </mxCell>
        <mxCell id="CHUTwIPW0XPMa-g5QAE5-1" value="" style="rounded=0;whiteSpace=wrap;html=1;strokeColor=none;" parent="1" vertex="1">
          <mxGeometry x="947" y="-200" width="60" height="60" as="geometry" />
        </mxCell>
        <mxCell id="0UJp2AOILWBGRGOO-VMv-2" value="Allice" style="image;html=1;image=img/lib/clip_art/people/Suit_Woman_Green_128x128.png" vertex="1" parent="1">
          <mxGeometry x="245" y="100" width="80" height="80" as="geometry" />
        </mxCell>
      </root>
    </mxGraphModel>
  </diagram>
  <diagram id="X1W2XPhpaWEaFEsf5SOK" name="Page-2">
    <mxGraphModel dx="1422" dy="1884" grid="1" gridSize="10" guides="1" tooltips="1" connect="1" arrows="1" fold="1" page="1" pageScale="1" pageWidth="827" pageHeight="1169" math="0" shadow="0">
      <root>
        <mxCell id="KPE1f4osu507-F5BKeH5-0" />
        <mxCell id="KPE1f4osu507-F5BKeH5-1" parent="KPE1f4osu507-F5BKeH5-0" />
        <mxCell id="KPE1f4osu507-F5BKeH5-2" value="" style="endArrow=classic;startArrow=classic;html=1;dashed=1;" parent="KPE1f4osu507-F5BKeH5-1" source="KPE1f4osu507-F5BKeH5-62" target="KPE1f4osu507-F5BKeH5-40" edge="1">
          <mxGeometry width="50" height="50" relative="1" as="geometry">
            <mxPoint x="320" y="160" as="sourcePoint" />
            <mxPoint x="300" y="160" as="targetPoint" />
          </mxGeometry>
        </mxCell>
        <mxCell id="KPE1f4osu507-F5BKeH5-9" value="" style="shape=document;whiteSpace=wrap;html=1;boundedLbl=1;align=center;" parent="KPE1f4osu507-F5BKeH5-1" vertex="1">
          <mxGeometry x="575" y="320" width="90" height="30" as="geometry" />
        </mxCell>
        <mxCell id="KPE1f4osu507-F5BKeH5-10" value="" style="shape=document;whiteSpace=wrap;html=1;boundedLbl=1;align=center;" parent="KPE1f4osu507-F5BKeH5-1" vertex="1">
          <mxGeometry x="565" y="310" width="90" height="30" as="geometry" />
        </mxCell>
        <mxCell id="KPE1f4osu507-F5BKeH5-11" value="" style="edgeStyle=orthogonalEdgeStyle;rounded=0;orthogonalLoop=1;jettySize=auto;html=1;" parent="KPE1f4osu507-F5BKeH5-1" source="KPE1f4osu507-F5BKeH5-12" target="KPE1f4osu507-F5BKeH5-17" edge="1">
          <mxGeometry relative="1" as="geometry" />
        </mxCell>
        <mxCell id="KPE1f4osu507-F5BKeH5-12" value="" style="shape=datastore;whiteSpace=wrap;html=1;fillColor=#dae8fc;strokeColor=#6c8ebf;" parent="KPE1f4osu507-F5BKeH5-1" vertex="1">
          <mxGeometry x="225" y="250" width="120" height="130" as="geometry" />
        </mxCell>
        <mxCell id="KPE1f4osu507-F5BKeH5-13" value="h2.xyz" style="shape=document;whiteSpace=wrap;html=1;boundedLbl=1;" parent="KPE1f4osu507-F5BKeH5-1" vertex="1">
          <mxGeometry x="235" y="300" width="80" height="30" as="geometry" />
        </mxCell>
        <mxCell id="KPE1f4osu507-F5BKeH5-14" value="c2h4.xyz" style="shape=document;whiteSpace=wrap;html=1;boundedLbl=1;" parent="KPE1f4osu507-F5BKeH5-1" vertex="1">
          <mxGeometry x="245" y="320" width="80" height="30" as="geometry" />
        </mxCell>
        <mxCell id="KPE1f4osu507-F5BKeH5-15" value="c2h6.xyz" style="shape=document;whiteSpace=wrap;html=1;boundedLbl=1;" parent="KPE1f4osu507-F5BKeH5-1" vertex="1">
          <mxGeometry x="255" y="340" width="80" height="30" as="geometry" />
        </mxCell>
        <mxCell id="KPE1f4osu507-F5BKeH5-16" style="edgeStyle=orthogonalEdgeStyle;rounded=0;orthogonalLoop=1;jettySize=auto;html=1;entryX=0;entryY=0.5;entryDx=0;entryDy=0;" parent="KPE1f4osu507-F5BKeH5-1" source="KPE1f4osu507-F5BKeH5-17" edge="1">
          <mxGeometry relative="1" as="geometry">
            <mxPoint x="555" y="315" as="targetPoint" />
          </mxGeometry>
        </mxCell>
        <mxCell id="KPE1f4osu507-F5BKeH5-17" value="Molecular&lt;br&gt;energy&lt;br&gt;calculator" style="shape=process;whiteSpace=wrap;html=1;backgroundOutline=1;fillColor=#e1d5e7;strokeColor=#9673a6;" parent="KPE1f4osu507-F5BKeH5-1" vertex="1">
          <mxGeometry x="385" y="285" width="120" height="60" as="geometry" />
        </mxCell>
        <mxCell id="KPE1f4osu507-F5BKeH5-21" value="emmo:Process" style="ellipse;whiteSpace=wrap;html=1;fillColor=#fff2cc;strokeColor=#d6b656;" parent="KPE1f4osu507-F5BKeH5-1" vertex="1">
          <mxGeometry x="550" y="-130" width="100" height="40" as="geometry" />
        </mxCell>
        <mxCell id="KPE1f4osu507-F5BKeH5-22" style="rounded=0;orthogonalLoop=1;jettySize=auto;html=1;endArrow=block;endFill=0;strokeWidth=2;" parent="KPE1f4osu507-F5BKeH5-1" source="KPE1f4osu507-F5BKeH5-23" target="KPE1f4osu507-F5BKeH5-27" edge="1">
          <mxGeometry relative="1" as="geometry" />
        </mxCell>
        <mxCell id="KPE1f4osu507-F5BKeH5-23" value="BindingEnergy" style="ellipse;whiteSpace=wrap;html=1;fillColor=#fff2cc;strokeColor=#d6b656;" parent="KPE1f4osu507-F5BKeH5-1" vertex="1">
          <mxGeometry x="240" y="-30" width="120" height="40" as="geometry" />
        </mxCell>
        <mxCell id="KPE1f4osu507-F5BKeH5-24" style="edgeStyle=none;rounded=0;orthogonalLoop=1;jettySize=auto;html=1;endArrow=block;endFill=0;strokeWidth=2;" parent="KPE1f4osu507-F5BKeH5-1" source="KPE1f4osu507-F5BKeH5-26" target="KPE1f4osu507-F5BKeH5-21" edge="1">
          <mxGeometry relative="1" as="geometry">
            <mxPoint x="640" y="-90" as="targetPoint" />
          </mxGeometry>
        </mxCell>
        <mxCell id="KPE1f4osu507-F5BKeH5-26" value="ChemicalReaction" style="ellipse;whiteSpace=wrap;html=1;fillColor=#fff2cc;strokeColor=#d6b656;" parent="KPE1f4osu507-F5BKeH5-1" vertex="1">
          <mxGeometry x="550" y="-30" width="120" height="40" as="geometry" />
        </mxCell>
        <mxCell id="KPE1f4osu507-F5BKeH5-27" value="emmo:PhysicalQuantity" style="ellipse;whiteSpace=wrap;html=1;fillColor=#fff2cc;strokeColor=#d6b656;" parent="KPE1f4osu507-F5BKeH5-1" vertex="1">
          <mxGeometry x="290" y="-130" width="146" height="40" as="geometry" />
        </mxCell>
        <mxCell id="KPE1f4osu507-F5BKeH5-28" style="edgeStyle=none;rounded=0;orthogonalLoop=1;jettySize=auto;html=1;endArrow=block;endFill=0;strokeWidth=2;" parent="KPE1f4osu507-F5BKeH5-1" source="KPE1f4osu507-F5BKeH5-29" target="KPE1f4osu507-F5BKeH5-33" edge="1">
          <mxGeometry relative="1" as="geometry" />
        </mxCell>
        <mxCell id="KPE1f4osu507-F5BKeH5-29" value="Reactant" style="ellipse;whiteSpace=wrap;html=1;fillColor=#fff2cc;strokeColor=#d6b656;" parent="KPE1f4osu507-F5BKeH5-1" vertex="1">
          <mxGeometry x="782.5" y="-30" width="80" height="40" as="geometry" />
        </mxCell>
        <mxCell id="KPE1f4osu507-F5BKeH5-30" style="edgeStyle=none;rounded=0;orthogonalLoop=1;jettySize=auto;html=1;endArrow=block;endFill=0;strokeWidth=2;" parent="KPE1f4osu507-F5BKeH5-1" source="KPE1f4osu507-F5BKeH5-31" target="KPE1f4osu507-F5BKeH5-33" edge="1">
          <mxGeometry relative="1" as="geometry" />
        </mxCell>
        <mxCell id="KPE1f4osu507-F5BKeH5-31" value="Product" style="ellipse;whiteSpace=wrap;html=1;fillColor=#fff2cc;strokeColor=#d6b656;" parent="KPE1f4osu507-F5BKeH5-1" vertex="1">
          <mxGeometry x="882.5" y="-30" width="85" height="40" as="geometry" />
        </mxCell>
        <mxCell id="KPE1f4osu507-F5BKeH5-32" style="edgeStyle=none;rounded=0;orthogonalLoop=1;jettySize=auto;html=1;endArrow=block;endFill=0;strokeWidth=2;" parent="KPE1f4osu507-F5BKeH5-1" source="KPE1f4osu507-F5BKeH5-33" target="KPE1f4osu507-F5BKeH5-34" edge="1">
          <mxGeometry relative="1" as="geometry" />
        </mxCell>
        <mxCell id="KPE1f4osu507-F5BKeH5-33" value="ChemicalSubstance" style="ellipse;whiteSpace=wrap;html=1;fillColor=#fff2cc;strokeColor=#d6b656;" parent="KPE1f4osu507-F5BKeH5-1" vertex="1">
          <mxGeometry x="827" y="-130" width="120" height="40" as="geometry" />
        </mxCell>
        <mxCell id="KPE1f4osu507-F5BKeH5-34" value="emmo:Matter" style="ellipse;whiteSpace=wrap;html=1;fillColor=#fff2cc;strokeColor=#d6b656;" parent="KPE1f4osu507-F5BKeH5-1" vertex="1">
          <mxGeometry x="790" y="-190" width="107" height="40" as="geometry" />
        </mxCell>
        <mxCell id="KPE1f4osu507-F5BKeH5-38" value="hasProperty exactly 1" style="edgeStyle=orthogonalEdgeStyle;rounded=0;orthogonalLoop=1;jettySize=auto;html=1;entryX=1;entryY=0;entryDx=0;entryDy=0;endArrow=classicThin;endFill=1;strokeWidth=2;curved=1;strokeColor=#3333FF;" parent="KPE1f4osu507-F5BKeH5-1" source="KPE1f4osu507-F5BKeH5-40" target="KPE1f4osu507-F5BKeH5-23" edge="1">
          <mxGeometry relative="1" as="geometry" />
        </mxCell>
        <mxCell id="KPE1f4osu507-F5BKeH5-39" value="isModelOf exactly 1" style="edgeStyle=orthogonalEdgeStyle;curved=1;rounded=0;orthogonalLoop=1;jettySize=auto;html=1;endArrow=classicThin;endFill=1;strokeColor=#3333FF;strokeWidth=2;entryX=0;entryY=0.5;entryDx=0;entryDy=0;" parent="KPE1f4osu507-F5BKeH5-1" source="KPE1f4osu507-F5BKeH5-40" target="KPE1f4osu507-F5BKeH5-33" edge="1">
          <mxGeometry relative="1" as="geometry" />
        </mxCell>
        <mxCell id="KPE1f4osu507-F5BKeH5-40" value="MoleculeModel" style="ellipse;whiteSpace=wrap;html=1;fillColor=#fff2cc;strokeColor=#d6b656;" parent="KPE1f4osu507-F5BKeH5-1" vertex="1">
          <mxGeometry x="650" y="-80" width="100" height="40" as="geometry" />
        </mxCell>
        <mxCell id="KPE1f4osu507-F5BKeH5-41" style="edgeStyle=none;rounded=0;orthogonalLoop=1;jettySize=auto;html=1;endArrow=block;endFill=0;strokeWidth=2;entryX=0.5;entryY=1;entryDx=0;entryDy=0;" parent="KPE1f4osu507-F5BKeH5-1" source="KPE1f4osu507-F5BKeH5-40" target="KPE1f4osu507-F5BKeH5-60" edge="1">
          <mxGeometry relative="1" as="geometry">
            <mxPoint x="873.4788315819244" y="-19.924217241931274" as="sourcePoint" />
            <mxPoint x="886.3702963759845" y="-90.03663006791476" as="targetPoint" />
          </mxGeometry>
        </mxCell>
        <mxCell id="KPE1f4osu507-F5BKeH5-48" style="edgeStyle=none;rounded=0;orthogonalLoop=1;jettySize=auto;html=1;endArrow=block;endFill=0;strokeColor=#000000;strokeWidth=2;" parent="KPE1f4osu507-F5BKeH5-1" source="KPE1f4osu507-F5BKeH5-49" target="KPE1f4osu507-F5BKeH5-27" edge="1">
          <mxGeometry relative="1" as="geometry" />
        </mxCell>
        <mxCell id="KPE1f4osu507-F5BKeH5-49" value="ReactionEnergy" style="ellipse;whiteSpace=wrap;html=1;fillColor=#fff2cc;strokeColor=#d6b656;" parent="KPE1f4osu507-F5BKeH5-1" vertex="1">
          <mxGeometry x="390" y="-30" width="120" height="40" as="geometry" />
        </mxCell>
        <mxCell id="KPE1f4osu507-F5BKeH5-53" style="edgeStyle=none;rounded=0;orthogonalLoop=1;jettySize=auto;html=1;endArrow=none;endFill=0;strokeWidth=1;dashed=1;exitX=0.5;exitY=0;exitDx=0;exitDy=0;" parent="KPE1f4osu507-F5BKeH5-1" source="KPE1f4osu507-F5BKeH5-61" target="KPE1f4osu507-F5BKeH5-62" edge="1">
          <mxGeometry relative="1" as="geometry">
            <mxPoint x="595" y="275" as="targetPoint" />
            <mxPoint x="610" y="420" as="sourcePoint" />
          </mxGeometry>
        </mxCell>
        <mxCell id="KPE1f4osu507-F5BKeH5-60" value="emmo:Model" style="ellipse;whiteSpace=wrap;html=1;fillColor=#fff2cc;strokeColor=#d6b656;" parent="KPE1f4osu507-F5BKeH5-1" vertex="1">
          <mxGeometry x="663" y="-190" width="107" height="40" as="geometry" />
        </mxCell>
        <mxCell id="KPE1f4osu507-F5BKeH5-61" value="&lt;b&gt;Data object&lt;/b&gt;" style="shape=document;whiteSpace=wrap;html=1;boundedLbl=1;align=center;" parent="KPE1f4osu507-F5BKeH5-1" vertex="1">
          <mxGeometry x="555" y="300" width="90" height="30" as="geometry" />
        </mxCell>
        <mxCell id="KPE1f4osu507-F5BKeH5-62" value="&lt;b&gt;Datamodel: Molecule&lt;/b&gt;&lt;br&gt;number_of_atoms&lt;br&gt;chemical_symbols&lt;br&gt;positions&lt;br&gt;energy" style="whiteSpace=wrap;html=1;rounded=0;align=left;strokeColor=#82b366;fillColor=#d5e8d4;" parent="KPE1f4osu507-F5BKeH5-1" vertex="1">
          <mxGeometry x="520" y="210" width="130" height="75" as="geometry" />
        </mxCell>
        <mxCell id="KPE1f4osu507-F5BKeH5-65" value="" style="endArrow=classic;startArrow=classic;html=1;dashed=1;" parent="KPE1f4osu507-F5BKeH5-1" target="KPE1f4osu507-F5BKeH5-23" edge="1">
          <mxGeometry width="50" height="50" relative="1" as="geometry">
            <mxPoint x="520" y="280" as="sourcePoint" />
            <mxPoint x="702.6478453315319" y="-30.217398263193672" as="targetPoint" />
          </mxGeometry>
        </mxCell>
        <mxCell id="KPE1f4osu507-F5BKeH5-66" value="" style="rounded=0;orthogonalLoop=1;jettySize=auto;html=1;entryX=1;entryY=0.5;entryDx=0;entryDy=0;endArrow=classicThin;endFill=1;strokeWidth=2;strokeColor=#3333FF;exitX=0;exitY=0.5;exitDx=0;exitDy=0;" parent="KPE1f4osu507-F5BKeH5-1" source="KPE1f4osu507-F5BKeH5-26" target="KPE1f4osu507-F5BKeH5-49" edge="1">
          <mxGeometry relative="1" as="geometry">
            <mxPoint x="660.0002162634435" y="-49.94117647058829" as="sourcePoint" />
            <mxPoint x="352.42640687119297" y="-14.142135623731292" as="targetPoint" />
          </mxGeometry>
        </mxCell>
        <mxCell id="K6LM1NjSXZre19VX4cfm-0" value="" style="rounded=0;whiteSpace=wrap;html=1;strokeColor=none;" parent="KPE1f4osu507-F5BKeH5-1" vertex="1">
          <mxGeometry x="947" y="-200" width="60" height="60" as="geometry" />
        </mxCell>
      </root>
    </mxGraphModel>
  </diagram>
  <diagram id="9nVn2dGUw3jpRUpDPUP9" name="Page-3">
    <mxGraphModel dx="1422" dy="1884" grid="1" gridSize="10" guides="1" tooltips="1" connect="1" arrows="1" fold="1" page="1" pageScale="1" pageWidth="827" pageHeight="1169" math="0" shadow="0">
      <root>
        <mxCell id="PhfnVmtnL9vSz-AkRxEr-0" />
        <mxCell id="PhfnVmtnL9vSz-AkRxEr-1" parent="PhfnVmtnL9vSz-AkRxEr-0" />
        <mxCell id="PhfnVmtnL9vSz-AkRxEr-2" value="" style="endArrow=classic;startArrow=classic;html=1;dashed=1;" parent="PhfnVmtnL9vSz-AkRxEr-1" source="PhfnVmtnL9vSz-AkRxEr-62" target="PhfnVmtnL9vSz-AkRxEr-40" edge="1">
          <mxGeometry width="50" height="50" relative="1" as="geometry">
            <mxPoint x="320" y="160" as="sourcePoint" />
            <mxPoint x="300" y="160" as="targetPoint" />
          </mxGeometry>
        </mxCell>
        <mxCell id="PhfnVmtnL9vSz-AkRxEr-3" value="" style="endArrow=classic;startArrow=classic;html=1;dashed=1;" parent="PhfnVmtnL9vSz-AkRxEr-1" source="PhfnVmtnL9vSz-AkRxEr-63" target="PhfnVmtnL9vSz-AkRxEr-26" edge="1">
          <mxGeometry width="50" height="50" relative="1" as="geometry">
            <mxPoint x="880" y="240" as="sourcePoint" />
            <mxPoint x="310" y="20" as="targetPoint" />
          </mxGeometry>
        </mxCell>
        <mxCell id="PhfnVmtnL9vSz-AkRxEr-4" value="" style="endArrow=classic;startArrow=classic;html=1;dashed=1;exitX=0;exitY=0.5;exitDx=0;exitDy=0;" parent="PhfnVmtnL9vSz-AkRxEr-1" source="PhfnVmtnL9vSz-AkRxEr-63" target="PhfnVmtnL9vSz-AkRxEr-49" edge="1">
          <mxGeometry width="50" height="50" relative="1" as="geometry">
            <mxPoint x="902.8529632261036" y="220" as="sourcePoint" />
            <mxPoint x="643.6031465675412" y="18.387469985200596" as="targetPoint" />
          </mxGeometry>
        </mxCell>
        <mxCell id="PhfnVmtnL9vSz-AkRxEr-9" value="" style="shape=document;whiteSpace=wrap;html=1;boundedLbl=1;align=center;" parent="PhfnVmtnL9vSz-AkRxEr-1" vertex="1">
          <mxGeometry x="575" y="320" width="90" height="30" as="geometry" />
        </mxCell>
        <mxCell id="PhfnVmtnL9vSz-AkRxEr-10" value="" style="shape=document;whiteSpace=wrap;html=1;boundedLbl=1;align=center;" parent="PhfnVmtnL9vSz-AkRxEr-1" vertex="1">
          <mxGeometry x="565" y="310" width="90" height="30" as="geometry" />
        </mxCell>
        <mxCell id="PhfnVmtnL9vSz-AkRxEr-11" value="" style="edgeStyle=orthogonalEdgeStyle;rounded=0;orthogonalLoop=1;jettySize=auto;html=1;" parent="PhfnVmtnL9vSz-AkRxEr-1" source="PhfnVmtnL9vSz-AkRxEr-12" target="PhfnVmtnL9vSz-AkRxEr-17" edge="1">
          <mxGeometry relative="1" as="geometry" />
        </mxCell>
        <mxCell id="PhfnVmtnL9vSz-AkRxEr-12" value="" style="shape=datastore;whiteSpace=wrap;html=1;fillColor=#dae8fc;strokeColor=#6c8ebf;" parent="PhfnVmtnL9vSz-AkRxEr-1" vertex="1">
          <mxGeometry x="225" y="250" width="120" height="130" as="geometry" />
        </mxCell>
        <mxCell id="PhfnVmtnL9vSz-AkRxEr-13" value="h2.xyz" style="shape=document;whiteSpace=wrap;html=1;boundedLbl=1;" parent="PhfnVmtnL9vSz-AkRxEr-1" vertex="1">
          <mxGeometry x="235" y="300" width="80" height="30" as="geometry" />
        </mxCell>
        <mxCell id="PhfnVmtnL9vSz-AkRxEr-14" value="c2h4.xyz" style="shape=document;whiteSpace=wrap;html=1;boundedLbl=1;" parent="PhfnVmtnL9vSz-AkRxEr-1" vertex="1">
          <mxGeometry x="245" y="320" width="80" height="30" as="geometry" />
        </mxCell>
        <mxCell id="PhfnVmtnL9vSz-AkRxEr-15" value="c2h6.xyz" style="shape=document;whiteSpace=wrap;html=1;boundedLbl=1;" parent="PhfnVmtnL9vSz-AkRxEr-1" vertex="1">
          <mxGeometry x="255" y="340" width="80" height="30" as="geometry" />
        </mxCell>
        <mxCell id="PhfnVmtnL9vSz-AkRxEr-16" style="edgeStyle=orthogonalEdgeStyle;rounded=0;orthogonalLoop=1;jettySize=auto;html=1;entryX=0;entryY=0.5;entryDx=0;entryDy=0;" parent="PhfnVmtnL9vSz-AkRxEr-1" source="PhfnVmtnL9vSz-AkRxEr-17" edge="1">
          <mxGeometry relative="1" as="geometry">
            <mxPoint x="555" y="315" as="targetPoint" />
          </mxGeometry>
        </mxCell>
        <mxCell id="PhfnVmtnL9vSz-AkRxEr-17" value="Molecular&lt;br&gt;energy&lt;br&gt;calculator" style="shape=process;whiteSpace=wrap;html=1;backgroundOutline=1;fillColor=#e1d5e7;strokeColor=#9673a6;" parent="PhfnVmtnL9vSz-AkRxEr-1" vertex="1">
          <mxGeometry x="385" y="285" width="120" height="60" as="geometry" />
        </mxCell>
        <mxCell id="PhfnVmtnL9vSz-AkRxEr-21" value="emmo:Process" style="ellipse;whiteSpace=wrap;html=1;fillColor=#fff2cc;strokeColor=#d6b656;" parent="PhfnVmtnL9vSz-AkRxEr-1" vertex="1">
          <mxGeometry x="550" y="-130" width="100" height="40" as="geometry" />
        </mxCell>
        <mxCell id="PhfnVmtnL9vSz-AkRxEr-22" style="rounded=0;orthogonalLoop=1;jettySize=auto;html=1;endArrow=block;endFill=0;strokeWidth=2;" parent="PhfnVmtnL9vSz-AkRxEr-1" source="PhfnVmtnL9vSz-AkRxEr-23" target="PhfnVmtnL9vSz-AkRxEr-27" edge="1">
          <mxGeometry relative="1" as="geometry" />
        </mxCell>
        <mxCell id="PhfnVmtnL9vSz-AkRxEr-23" value="BindingEnergy" style="ellipse;whiteSpace=wrap;html=1;fillColor=#fff2cc;strokeColor=#d6b656;" parent="PhfnVmtnL9vSz-AkRxEr-1" vertex="1">
          <mxGeometry x="240" y="-30" width="120" height="40" as="geometry" />
        </mxCell>
        <mxCell id="PhfnVmtnL9vSz-AkRxEr-24" style="edgeStyle=none;rounded=0;orthogonalLoop=1;jettySize=auto;html=1;endArrow=block;endFill=0;strokeWidth=2;" parent="PhfnVmtnL9vSz-AkRxEr-1" source="PhfnVmtnL9vSz-AkRxEr-26" target="PhfnVmtnL9vSz-AkRxEr-21" edge="1">
          <mxGeometry relative="1" as="geometry">
            <mxPoint x="640" y="-90" as="targetPoint" />
          </mxGeometry>
        </mxCell>
        <mxCell id="PhfnVmtnL9vSz-AkRxEr-26" value="ChemicalReaction" style="ellipse;whiteSpace=wrap;html=1;fillColor=#fff2cc;strokeColor=#d6b656;" parent="PhfnVmtnL9vSz-AkRxEr-1" vertex="1">
          <mxGeometry x="550" y="-30" width="120" height="40" as="geometry" />
        </mxCell>
        <mxCell id="PhfnVmtnL9vSz-AkRxEr-27" value="emmo:PhysicalQuantity" style="ellipse;whiteSpace=wrap;html=1;fillColor=#fff2cc;strokeColor=#d6b656;" parent="PhfnVmtnL9vSz-AkRxEr-1" vertex="1">
          <mxGeometry x="290" y="-130" width="146" height="40" as="geometry" />
        </mxCell>
        <mxCell id="PhfnVmtnL9vSz-AkRxEr-28" style="edgeStyle=none;rounded=0;orthogonalLoop=1;jettySize=auto;html=1;endArrow=block;endFill=0;strokeWidth=2;" parent="PhfnVmtnL9vSz-AkRxEr-1" source="PhfnVmtnL9vSz-AkRxEr-29" target="PhfnVmtnL9vSz-AkRxEr-33" edge="1">
          <mxGeometry relative="1" as="geometry" />
        </mxCell>
        <mxCell id="PhfnVmtnL9vSz-AkRxEr-29" value="Reactant" style="ellipse;whiteSpace=wrap;html=1;fillColor=#fff2cc;strokeColor=#d6b656;" parent="PhfnVmtnL9vSz-AkRxEr-1" vertex="1">
          <mxGeometry x="782.5" y="-30" width="80" height="40" as="geometry" />
        </mxCell>
        <mxCell id="PhfnVmtnL9vSz-AkRxEr-30" style="edgeStyle=none;rounded=0;orthogonalLoop=1;jettySize=auto;html=1;endArrow=block;endFill=0;strokeWidth=2;" parent="PhfnVmtnL9vSz-AkRxEr-1" source="PhfnVmtnL9vSz-AkRxEr-31" target="PhfnVmtnL9vSz-AkRxEr-33" edge="1">
          <mxGeometry relative="1" as="geometry" />
        </mxCell>
        <mxCell id="PhfnVmtnL9vSz-AkRxEr-31" value="Product" style="ellipse;whiteSpace=wrap;html=1;fillColor=#fff2cc;strokeColor=#d6b656;" parent="PhfnVmtnL9vSz-AkRxEr-1" vertex="1">
          <mxGeometry x="882.5" y="-30" width="85" height="40" as="geometry" />
        </mxCell>
        <mxCell id="PhfnVmtnL9vSz-AkRxEr-32" style="edgeStyle=none;rounded=0;orthogonalLoop=1;jettySize=auto;html=1;endArrow=block;endFill=0;strokeWidth=2;" parent="PhfnVmtnL9vSz-AkRxEr-1" source="PhfnVmtnL9vSz-AkRxEr-33" target="PhfnVmtnL9vSz-AkRxEr-34" edge="1">
          <mxGeometry relative="1" as="geometry" />
        </mxCell>
        <mxCell id="PhfnVmtnL9vSz-AkRxEr-33" value="ChemicalSubstance" style="ellipse;whiteSpace=wrap;html=1;fillColor=#fff2cc;strokeColor=#d6b656;" parent="PhfnVmtnL9vSz-AkRxEr-1" vertex="1">
          <mxGeometry x="827" y="-130" width="120" height="40" as="geometry" />
        </mxCell>
        <mxCell id="PhfnVmtnL9vSz-AkRxEr-34" value="emmo:Matter" style="ellipse;whiteSpace=wrap;html=1;fillColor=#fff2cc;strokeColor=#d6b656;" parent="PhfnVmtnL9vSz-AkRxEr-1" vertex="1">
          <mxGeometry x="790" y="-190" width="107" height="40" as="geometry" />
        </mxCell>
        <mxCell id="PhfnVmtnL9vSz-AkRxEr-38" value="hasProperty exactly 1" style="edgeStyle=orthogonalEdgeStyle;rounded=0;orthogonalLoop=1;jettySize=auto;html=1;entryX=1;entryY=0;entryDx=0;entryDy=0;endArrow=classicThin;endFill=1;strokeWidth=2;curved=1;strokeColor=#3333FF;" parent="PhfnVmtnL9vSz-AkRxEr-1" source="PhfnVmtnL9vSz-AkRxEr-40" target="PhfnVmtnL9vSz-AkRxEr-23" edge="1">
          <mxGeometry relative="1" as="geometry" />
        </mxCell>
        <mxCell id="PhfnVmtnL9vSz-AkRxEr-39" value="isModelOf exactly 1" style="edgeStyle=orthogonalEdgeStyle;curved=1;rounded=0;orthogonalLoop=1;jettySize=auto;html=1;endArrow=classicThin;endFill=1;strokeColor=#3333FF;strokeWidth=2;entryX=0;entryY=0.5;entryDx=0;entryDy=0;" parent="PhfnVmtnL9vSz-AkRxEr-1" source="PhfnVmtnL9vSz-AkRxEr-40" target="PhfnVmtnL9vSz-AkRxEr-33" edge="1">
          <mxGeometry relative="1" as="geometry" />
        </mxCell>
        <mxCell id="PhfnVmtnL9vSz-AkRxEr-40" value="MoleculeModel" style="ellipse;whiteSpace=wrap;html=1;fillColor=#fff2cc;strokeColor=#d6b656;" parent="PhfnVmtnL9vSz-AkRxEr-1" vertex="1">
          <mxGeometry x="650" y="-80" width="100" height="40" as="geometry" />
        </mxCell>
        <mxCell id="PhfnVmtnL9vSz-AkRxEr-41" style="edgeStyle=none;rounded=0;orthogonalLoop=1;jettySize=auto;html=1;endArrow=block;endFill=0;strokeWidth=2;entryX=0.5;entryY=1;entryDx=0;entryDy=0;" parent="PhfnVmtnL9vSz-AkRxEr-1" source="PhfnVmtnL9vSz-AkRxEr-40" target="PhfnVmtnL9vSz-AkRxEr-60" edge="1">
          <mxGeometry relative="1" as="geometry">
            <mxPoint x="873.4788315819244" y="-19.924217241931274" as="sourcePoint" />
            <mxPoint x="886.3702963759845" y="-90.03663006791476" as="targetPoint" />
          </mxGeometry>
        </mxCell>
        <mxCell id="PhfnVmtnL9vSz-AkRxEr-48" style="edgeStyle=none;rounded=0;orthogonalLoop=1;jettySize=auto;html=1;endArrow=block;endFill=0;strokeColor=#000000;strokeWidth=2;" parent="PhfnVmtnL9vSz-AkRxEr-1" source="PhfnVmtnL9vSz-AkRxEr-49" target="PhfnVmtnL9vSz-AkRxEr-27" edge="1">
          <mxGeometry relative="1" as="geometry" />
        </mxCell>
        <mxCell id="PhfnVmtnL9vSz-AkRxEr-49" value="ReactionEnergy" style="ellipse;whiteSpace=wrap;html=1;fillColor=#fff2cc;strokeColor=#d6b656;" parent="PhfnVmtnL9vSz-AkRxEr-1" vertex="1">
          <mxGeometry x="390" y="-30" width="120" height="40" as="geometry" />
        </mxCell>
        <mxCell id="PhfnVmtnL9vSz-AkRxEr-53" style="edgeStyle=none;rounded=0;orthogonalLoop=1;jettySize=auto;html=1;endArrow=none;endFill=0;strokeWidth=1;dashed=1;exitX=0.5;exitY=0;exitDx=0;exitDy=0;" parent="PhfnVmtnL9vSz-AkRxEr-1" source="PhfnVmtnL9vSz-AkRxEr-61" target="PhfnVmtnL9vSz-AkRxEr-62" edge="1">
          <mxGeometry relative="1" as="geometry">
            <mxPoint x="595" y="275" as="targetPoint" />
            <mxPoint x="610" y="420" as="sourcePoint" />
          </mxGeometry>
        </mxCell>
        <mxCell id="PhfnVmtnL9vSz-AkRxEr-60" value="emmo:Model" style="ellipse;whiteSpace=wrap;html=1;fillColor=#fff2cc;strokeColor=#d6b656;" parent="PhfnVmtnL9vSz-AkRxEr-1" vertex="1">
          <mxGeometry x="663" y="-190" width="107" height="40" as="geometry" />
        </mxCell>
        <mxCell id="PhfnVmtnL9vSz-AkRxEr-61" value="&lt;b&gt;Data object&lt;/b&gt;" style="shape=document;whiteSpace=wrap;html=1;boundedLbl=1;align=center;" parent="PhfnVmtnL9vSz-AkRxEr-1" vertex="1">
          <mxGeometry x="555" y="300" width="90" height="30" as="geometry" />
        </mxCell>
        <mxCell id="PhfnVmtnL9vSz-AkRxEr-62" value="&lt;b&gt;Datamodel: Molecule&lt;/b&gt;&lt;br&gt;number_of_atoms&lt;br&gt;chemical_symbols&lt;br&gt;positions&lt;br&gt;energy" style="whiteSpace=wrap;html=1;rounded=0;align=left;strokeColor=#82b366;fillColor=#d5e8d4;" parent="PhfnVmtnL9vSz-AkRxEr-1" vertex="1">
          <mxGeometry x="520" y="210" width="130" height="75" as="geometry" />
        </mxCell>
        <mxCell id="PhfnVmtnL9vSz-AkRxEr-63" value="&lt;b&gt;Datamodel: Reaction&lt;/b&gt;&lt;br&gt;reaction_energy&lt;br&gt;..." style="whiteSpace=wrap;html=1;rounded=0;align=left;strokeColor=#82b366;fillColor=#d5e8d4;" parent="PhfnVmtnL9vSz-AkRxEr-1" vertex="1">
          <mxGeometry x="862.5" y="210" width="125" height="50" as="geometry" />
        </mxCell>
        <mxCell id="PhfnVmtnL9vSz-AkRxEr-65" value="" style="endArrow=classic;startArrow=classic;html=1;dashed=1;" parent="PhfnVmtnL9vSz-AkRxEr-1" target="PhfnVmtnL9vSz-AkRxEr-23" edge="1">
          <mxGeometry width="50" height="50" relative="1" as="geometry">
            <mxPoint x="520" y="280" as="sourcePoint" />
            <mxPoint x="702.6478453315319" y="-30.217398263193672" as="targetPoint" />
          </mxGeometry>
        </mxCell>
        <mxCell id="PhfnVmtnL9vSz-AkRxEr-66" value="" style="rounded=0;orthogonalLoop=1;jettySize=auto;html=1;entryX=1;entryY=0.5;entryDx=0;entryDy=0;endArrow=classicThin;endFill=1;strokeWidth=2;strokeColor=#3333FF;exitX=0;exitY=0.5;exitDx=0;exitDy=0;" parent="PhfnVmtnL9vSz-AkRxEr-1" source="PhfnVmtnL9vSz-AkRxEr-26" target="PhfnVmtnL9vSz-AkRxEr-49" edge="1">
          <mxGeometry relative="1" as="geometry">
            <mxPoint x="660.0002162634435" y="-49.94117647058829" as="sourcePoint" />
            <mxPoint x="352.42640687119297" y="-14.142135623731292" as="targetPoint" />
          </mxGeometry>
        </mxCell>
        <mxCell id="ip58OCtXOBaf62Z0AmpO-1" value="" style="rounded=0;whiteSpace=wrap;html=1;strokeColor=none;" parent="PhfnVmtnL9vSz-AkRxEr-1" vertex="1">
          <mxGeometry x="947" y="-200" width="60" height="60" as="geometry" />
        </mxCell>
      </root>
    </mxGraphModel>
  </diagram>
  <diagram id="uTgKte7SSo6MKFHPbtGq" name="Page-4">
    <mxGraphModel dx="1422" dy="1884" grid="1" gridSize="10" guides="1" tooltips="1" connect="1" arrows="1" fold="1" page="1" pageScale="1" pageWidth="827" pageHeight="1169" math="0" shadow="0">
      <root>
        <mxCell id="9MTcLaLqjoIEcqOG1wvj-0" />
        <mxCell id="9MTcLaLqjoIEcqOG1wvj-1" parent="9MTcLaLqjoIEcqOG1wvj-0" />
        <mxCell id="OF_y1TKzcRP8yUNRRijT-0" value="" style="endArrow=classic;startArrow=classic;html=1;dashed=1;" parent="9MTcLaLqjoIEcqOG1wvj-1" source="OF_y1TKzcRP8yUNRRijT-60" target="OF_y1TKzcRP8yUNRRijT-38" edge="1">
          <mxGeometry width="50" height="50" relative="1" as="geometry">
            <mxPoint x="320" y="160" as="sourcePoint" />
            <mxPoint x="300" y="160" as="targetPoint" />
          </mxGeometry>
        </mxCell>
        <mxCell id="OF_y1TKzcRP8yUNRRijT-1" value="" style="endArrow=classic;startArrow=classic;html=1;dashed=1;" parent="9MTcLaLqjoIEcqOG1wvj-1" source="OF_y1TKzcRP8yUNRRijT-61" target="OF_y1TKzcRP8yUNRRijT-24" edge="1">
          <mxGeometry width="50" height="50" relative="1" as="geometry">
            <mxPoint x="880" y="240" as="sourcePoint" />
            <mxPoint x="310" y="20" as="targetPoint" />
          </mxGeometry>
        </mxCell>
        <mxCell id="OF_y1TKzcRP8yUNRRijT-2" value="" style="endArrow=classic;startArrow=classic;html=1;dashed=1;exitX=0;exitY=0.5;exitDx=0;exitDy=0;" parent="9MTcLaLqjoIEcqOG1wvj-1" source="OF_y1TKzcRP8yUNRRijT-61" target="OF_y1TKzcRP8yUNRRijT-47" edge="1">
          <mxGeometry width="50" height="50" relative="1" as="geometry">
            <mxPoint x="902.8529632261036" y="220" as="sourcePoint" />
            <mxPoint x="643.6031465675412" y="18.387469985200596" as="targetPoint" />
          </mxGeometry>
        </mxCell>
        <mxCell id="OF_y1TKzcRP8yUNRRijT-3" value="" style="rounded=1;whiteSpace=wrap;html=1;fillColor=#f5f5f5;strokeColor=#666666;fontColor=#333333;" parent="9MTcLaLqjoIEcqOG1wvj-1" vertex="1">
          <mxGeometry x="470" y="50" width="510" height="110" as="geometry" />
        </mxCell>
        <mxCell id="OF_y1TKzcRP8yUNRRijT-7" value="" style="shape=document;whiteSpace=wrap;html=1;boundedLbl=1;align=center;" parent="9MTcLaLqjoIEcqOG1wvj-1" vertex="1">
          <mxGeometry x="575" y="320" width="90" height="30" as="geometry" />
        </mxCell>
        <mxCell id="OF_y1TKzcRP8yUNRRijT-8" value="" style="shape=document;whiteSpace=wrap;html=1;boundedLbl=1;align=center;" parent="9MTcLaLqjoIEcqOG1wvj-1" vertex="1">
          <mxGeometry x="565" y="310" width="90" height="30" as="geometry" />
        </mxCell>
        <mxCell id="OF_y1TKzcRP8yUNRRijT-9" value="" style="edgeStyle=orthogonalEdgeStyle;rounded=0;orthogonalLoop=1;jettySize=auto;html=1;" parent="9MTcLaLqjoIEcqOG1wvj-1" source="OF_y1TKzcRP8yUNRRijT-10" target="OF_y1TKzcRP8yUNRRijT-15" edge="1">
          <mxGeometry relative="1" as="geometry" />
        </mxCell>
        <mxCell id="OF_y1TKzcRP8yUNRRijT-10" value="" style="shape=datastore;whiteSpace=wrap;html=1;fillColor=#dae8fc;strokeColor=#6c8ebf;" parent="9MTcLaLqjoIEcqOG1wvj-1" vertex="1">
          <mxGeometry x="225" y="250" width="120" height="130" as="geometry" />
        </mxCell>
        <mxCell id="OF_y1TKzcRP8yUNRRijT-11" value="h2.xyz" style="shape=document;whiteSpace=wrap;html=1;boundedLbl=1;" parent="9MTcLaLqjoIEcqOG1wvj-1" vertex="1">
          <mxGeometry x="235" y="300" width="80" height="30" as="geometry" />
        </mxCell>
        <mxCell id="OF_y1TKzcRP8yUNRRijT-12" value="c2h4.xyz" style="shape=document;whiteSpace=wrap;html=1;boundedLbl=1;" parent="9MTcLaLqjoIEcqOG1wvj-1" vertex="1">
          <mxGeometry x="245" y="320" width="80" height="30" as="geometry" />
        </mxCell>
        <mxCell id="OF_y1TKzcRP8yUNRRijT-13" value="c2h6.xyz" style="shape=document;whiteSpace=wrap;html=1;boundedLbl=1;" parent="9MTcLaLqjoIEcqOG1wvj-1" vertex="1">
          <mxGeometry x="255" y="340" width="80" height="30" as="geometry" />
        </mxCell>
        <mxCell id="OF_y1TKzcRP8yUNRRijT-14" style="edgeStyle=orthogonalEdgeStyle;rounded=0;orthogonalLoop=1;jettySize=auto;html=1;entryX=0;entryY=0.5;entryDx=0;entryDy=0;" parent="9MTcLaLqjoIEcqOG1wvj-1" source="OF_y1TKzcRP8yUNRRijT-15" edge="1">
          <mxGeometry relative="1" as="geometry">
            <mxPoint x="555" y="315" as="targetPoint" />
          </mxGeometry>
        </mxCell>
        <mxCell id="OF_y1TKzcRP8yUNRRijT-15" value="Molecular&lt;br&gt;energy&lt;br&gt;calculator" style="shape=process;whiteSpace=wrap;html=1;backgroundOutline=1;fillColor=#e1d5e7;strokeColor=#9673a6;" parent="9MTcLaLqjoIEcqOG1wvj-1" vertex="1">
          <mxGeometry x="385" y="285" width="120" height="60" as="geometry" />
        </mxCell>
        <mxCell id="OF_y1TKzcRP8yUNRRijT-19" value="emmo:Process" style="ellipse;whiteSpace=wrap;html=1;fillColor=#fff2cc;strokeColor=#d6b656;" parent="9MTcLaLqjoIEcqOG1wvj-1" vertex="1">
          <mxGeometry x="550" y="-130" width="100" height="40" as="geometry" />
        </mxCell>
        <mxCell id="OF_y1TKzcRP8yUNRRijT-20" style="rounded=0;orthogonalLoop=1;jettySize=auto;html=1;endArrow=block;endFill=0;strokeWidth=2;" parent="9MTcLaLqjoIEcqOG1wvj-1" source="OF_y1TKzcRP8yUNRRijT-21" target="OF_y1TKzcRP8yUNRRijT-25" edge="1">
          <mxGeometry relative="1" as="geometry" />
        </mxCell>
        <mxCell id="OF_y1TKzcRP8yUNRRijT-21" value="BindingEnergy" style="ellipse;whiteSpace=wrap;html=1;fillColor=#fff2cc;strokeColor=#d6b656;" parent="9MTcLaLqjoIEcqOG1wvj-1" vertex="1">
          <mxGeometry x="240" y="-30" width="120" height="40" as="geometry" />
        </mxCell>
        <mxCell id="OF_y1TKzcRP8yUNRRijT-22" style="edgeStyle=none;rounded=0;orthogonalLoop=1;jettySize=auto;html=1;endArrow=block;endFill=0;strokeWidth=2;" parent="9MTcLaLqjoIEcqOG1wvj-1" source="OF_y1TKzcRP8yUNRRijT-24" target="OF_y1TKzcRP8yUNRRijT-19" edge="1">
          <mxGeometry relative="1" as="geometry">
            <mxPoint x="640" y="-90" as="targetPoint" />
          </mxGeometry>
        </mxCell>
        <mxCell id="OF_y1TKzcRP8yUNRRijT-23" value="hasInputParticipant" style="edgeStyle=orthogonalEdgeStyle;curved=1;rounded=0;orthogonalLoop=1;jettySize=auto;html=1;endArrow=none;endFill=0;strokeColor=#6382B0;exitX=0;exitY=0.5;exitDx=0;exitDy=0;entryX=1;entryY=0;entryDx=0;entryDy=0;strokeWidth=2;startArrow=classicThin;startFill=1;labelBackgroundColor=#F5F5F5;" parent="9MTcLaLqjoIEcqOG1wvj-1" source="OF_y1TKzcRP8yUNRRijT-41" target="OF_y1TKzcRP8yUNRRijT-35" edge="1">
          <mxGeometry relative="1" as="geometry">
            <mxPoint x="460" y="120" as="sourcePoint" />
            <mxPoint x="680" y="140" as="targetPoint" />
            <Array as="points">
              <mxPoint x="642" y="85" />
            </Array>
          </mxGeometry>
        </mxCell>
        <mxCell id="OF_y1TKzcRP8yUNRRijT-24" value="ChemicalReaction" style="ellipse;whiteSpace=wrap;html=1;fillColor=#fff2cc;strokeColor=#d6b656;" parent="9MTcLaLqjoIEcqOG1wvj-1" vertex="1">
          <mxGeometry x="550" y="-30" width="120" height="40" as="geometry" />
        </mxCell>
        <mxCell id="OF_y1TKzcRP8yUNRRijT-25" value="emmo:PhysicalQuantity" style="ellipse;whiteSpace=wrap;html=1;fillColor=#fff2cc;strokeColor=#d6b656;" parent="9MTcLaLqjoIEcqOG1wvj-1" vertex="1">
          <mxGeometry x="290" y="-130" width="146" height="40" as="geometry" />
        </mxCell>
        <mxCell id="OF_y1TKzcRP8yUNRRijT-26" style="edgeStyle=none;rounded=0;orthogonalLoop=1;jettySize=auto;html=1;endArrow=block;endFill=0;strokeWidth=2;" parent="9MTcLaLqjoIEcqOG1wvj-1" source="OF_y1TKzcRP8yUNRRijT-27" target="OF_y1TKzcRP8yUNRRijT-31" edge="1">
          <mxGeometry relative="1" as="geometry" />
        </mxCell>
        <mxCell id="OF_y1TKzcRP8yUNRRijT-27" value="Reactant" style="ellipse;whiteSpace=wrap;html=1;fillColor=#fff2cc;strokeColor=#d6b656;" parent="9MTcLaLqjoIEcqOG1wvj-1" vertex="1">
          <mxGeometry x="782.5" y="-30" width="80" height="40" as="geometry" />
        </mxCell>
        <mxCell id="OF_y1TKzcRP8yUNRRijT-28" style="edgeStyle=none;rounded=0;orthogonalLoop=1;jettySize=auto;html=1;endArrow=block;endFill=0;strokeWidth=2;" parent="9MTcLaLqjoIEcqOG1wvj-1" source="OF_y1TKzcRP8yUNRRijT-29" target="OF_y1TKzcRP8yUNRRijT-31" edge="1">
          <mxGeometry relative="1" as="geometry" />
        </mxCell>
        <mxCell id="OF_y1TKzcRP8yUNRRijT-29" value="Product" style="ellipse;whiteSpace=wrap;html=1;fillColor=#fff2cc;strokeColor=#d6b656;" parent="9MTcLaLqjoIEcqOG1wvj-1" vertex="1">
          <mxGeometry x="882.5" y="-30" width="85" height="40" as="geometry" />
        </mxCell>
        <mxCell id="OF_y1TKzcRP8yUNRRijT-30" style="edgeStyle=none;rounded=0;orthogonalLoop=1;jettySize=auto;html=1;endArrow=block;endFill=0;strokeWidth=2;" parent="9MTcLaLqjoIEcqOG1wvj-1" source="OF_y1TKzcRP8yUNRRijT-31" target="OF_y1TKzcRP8yUNRRijT-32" edge="1">
          <mxGeometry relative="1" as="geometry" />
        </mxCell>
        <mxCell id="OF_y1TKzcRP8yUNRRijT-31" value="ChemicalSubstance" style="ellipse;whiteSpace=wrap;html=1;fillColor=#fff2cc;strokeColor=#d6b656;" parent="9MTcLaLqjoIEcqOG1wvj-1" vertex="1">
          <mxGeometry x="827" y="-130" width="120" height="40" as="geometry" />
        </mxCell>
        <mxCell id="OF_y1TKzcRP8yUNRRijT-32" value="emmo:Matter" style="ellipse;whiteSpace=wrap;html=1;fillColor=#fff2cc;strokeColor=#d6b656;" parent="9MTcLaLqjoIEcqOG1wvj-1" vertex="1">
          <mxGeometry x="790" y="-190" width="107" height="40" as="geometry" />
        </mxCell>
        <mxCell id="OF_y1TKzcRP8yUNRRijT-34" style="edgeStyle=none;rounded=0;orthogonalLoop=1;jettySize=auto;html=1;endArrow=block;endFill=0;strokeColor=#000000;strokeWidth=2;" parent="9MTcLaLqjoIEcqOG1wvj-1" source="OF_y1TKzcRP8yUNRRijT-35" target="OF_y1TKzcRP8yUNRRijT-24" edge="1">
          <mxGeometry relative="1" as="geometry" />
        </mxCell>
        <mxCell id="OF_y1TKzcRP8yUNRRijT-35" value="" style="rhombus;whiteSpace=wrap;html=1;fillColor=#1ba1e2;strokeColor=#006EAF;fontColor=#ffffff;" parent="9MTcLaLqjoIEcqOG1wvj-1" vertex="1">
          <mxGeometry x="620" y="110" width="30" height="30" as="geometry" />
        </mxCell>
        <mxCell id="OF_y1TKzcRP8yUNRRijT-36" value="hasProperty exactly 1" style="edgeStyle=orthogonalEdgeStyle;rounded=0;orthogonalLoop=1;jettySize=auto;html=1;entryX=1;entryY=0;entryDx=0;entryDy=0;endArrow=classicThin;endFill=1;strokeWidth=2;curved=1;strokeColor=#3333FF;" parent="9MTcLaLqjoIEcqOG1wvj-1" source="OF_y1TKzcRP8yUNRRijT-38" target="OF_y1TKzcRP8yUNRRijT-21" edge="1">
          <mxGeometry relative="1" as="geometry" />
        </mxCell>
        <mxCell id="OF_y1TKzcRP8yUNRRijT-37" value="isModelOf exactly 1" style="edgeStyle=orthogonalEdgeStyle;curved=1;rounded=0;orthogonalLoop=1;jettySize=auto;html=1;endArrow=classicThin;endFill=1;strokeColor=#3333FF;strokeWidth=2;entryX=0;entryY=0.5;entryDx=0;entryDy=0;" parent="9MTcLaLqjoIEcqOG1wvj-1" source="OF_y1TKzcRP8yUNRRijT-38" target="OF_y1TKzcRP8yUNRRijT-31" edge="1">
          <mxGeometry relative="1" as="geometry" />
        </mxCell>
        <mxCell id="OF_y1TKzcRP8yUNRRijT-38" value="MoleculeModel" style="ellipse;whiteSpace=wrap;html=1;fillColor=#fff2cc;strokeColor=#d6b656;" parent="9MTcLaLqjoIEcqOG1wvj-1" vertex="1">
          <mxGeometry x="650" y="-80" width="100" height="40" as="geometry" />
        </mxCell>
        <mxCell id="OF_y1TKzcRP8yUNRRijT-39" style="edgeStyle=none;rounded=0;orthogonalLoop=1;jettySize=auto;html=1;endArrow=block;endFill=0;strokeWidth=2;entryX=0.5;entryY=1;entryDx=0;entryDy=0;" parent="9MTcLaLqjoIEcqOG1wvj-1" source="OF_y1TKzcRP8yUNRRijT-38" target="OF_y1TKzcRP8yUNRRijT-58" edge="1">
          <mxGeometry relative="1" as="geometry">
            <mxPoint x="873.4788315819244" y="-19.924217241931274" as="sourcePoint" />
            <mxPoint x="886.3702963759845" y="-90.03663006791476" as="targetPoint" />
          </mxGeometry>
        </mxCell>
        <mxCell id="OF_y1TKzcRP8yUNRRijT-40" style="edgeStyle=none;rounded=0;orthogonalLoop=1;jettySize=auto;html=1;endArrow=block;endFill=0;strokeColor=#000000;strokeWidth=2;" parent="9MTcLaLqjoIEcqOG1wvj-1" source="OF_y1TKzcRP8yUNRRijT-41" target="OF_y1TKzcRP8yUNRRijT-27" edge="1">
          <mxGeometry relative="1" as="geometry" />
        </mxCell>
        <mxCell id="OF_y1TKzcRP8yUNRRijT-41" value="" style="rhombus;whiteSpace=wrap;html=1;fillColor=#1ba1e2;strokeColor=#006EAF;fontColor=#ffffff;" parent="9MTcLaLqjoIEcqOG1wvj-1" vertex="1">
          <mxGeometry x="770" y="70" width="30" height="30" as="geometry" />
        </mxCell>
        <mxCell id="OF_y1TKzcRP8yUNRRijT-42" style="edgeStyle=none;rounded=0;orthogonalLoop=1;jettySize=auto;html=1;endArrow=block;endFill=0;strokeColor=#000000;strokeWidth=2;" parent="9MTcLaLqjoIEcqOG1wvj-1" source="OF_y1TKzcRP8yUNRRijT-43" target="OF_y1TKzcRP8yUNRRijT-29" edge="1">
          <mxGeometry relative="1" as="geometry" />
        </mxCell>
        <mxCell id="OF_y1TKzcRP8yUNRRijT-43" value="" style="rhombus;whiteSpace=wrap;html=1;fillColor=#1ba1e2;strokeColor=#006EAF;fontColor=#ffffff;" parent="9MTcLaLqjoIEcqOG1wvj-1" vertex="1">
          <mxGeometry x="850" y="70" width="30" height="30" as="geometry" />
        </mxCell>
        <mxCell id="OF_y1TKzcRP8yUNRRijT-44" style="edgeStyle=none;rounded=0;orthogonalLoop=1;jettySize=auto;html=1;endArrow=block;endFill=0;strokeColor=#000000;strokeWidth=2;" parent="9MTcLaLqjoIEcqOG1wvj-1" source="OF_y1TKzcRP8yUNRRijT-45" target="OF_y1TKzcRP8yUNRRijT-29" edge="1">
          <mxGeometry relative="1" as="geometry" />
        </mxCell>
        <mxCell id="OF_y1TKzcRP8yUNRRijT-45" value="" style="rhombus;whiteSpace=wrap;html=1;fillColor=#1ba1e2;strokeColor=#006EAF;fontColor=#ffffff;" parent="9MTcLaLqjoIEcqOG1wvj-1" vertex="1">
          <mxGeometry x="930" y="70" width="30" height="30" as="geometry" />
        </mxCell>
        <mxCell id="OF_y1TKzcRP8yUNRRijT-46" style="edgeStyle=none;rounded=0;orthogonalLoop=1;jettySize=auto;html=1;endArrow=block;endFill=0;strokeColor=#000000;strokeWidth=2;" parent="9MTcLaLqjoIEcqOG1wvj-1" source="OF_y1TKzcRP8yUNRRijT-47" target="OF_y1TKzcRP8yUNRRijT-25" edge="1">
          <mxGeometry relative="1" as="geometry" />
        </mxCell>
        <mxCell id="OF_y1TKzcRP8yUNRRijT-47" value="ReactionEnergy" style="ellipse;whiteSpace=wrap;html=1;fillColor=#fff2cc;strokeColor=#d6b656;" parent="9MTcLaLqjoIEcqOG1wvj-1" vertex="1">
          <mxGeometry x="390" y="-30" width="120" height="40" as="geometry" />
        </mxCell>
        <mxCell id="OF_y1TKzcRP8yUNRRijT-48" style="edgeStyle=none;rounded=0;orthogonalLoop=1;jettySize=auto;html=1;endArrow=block;endFill=0;strokeColor=#000000;strokeWidth=2;" parent="9MTcLaLqjoIEcqOG1wvj-1" source="OF_y1TKzcRP8yUNRRijT-50" target="OF_y1TKzcRP8yUNRRijT-47" edge="1">
          <mxGeometry relative="1" as="geometry" />
        </mxCell>
        <mxCell id="OF_y1TKzcRP8yUNRRijT-49" value="hasProperty" style="edgeStyle=none;rounded=0;orthogonalLoop=1;jettySize=auto;html=1;entryX=0;entryY=0.5;entryDx=0;entryDy=0;endArrow=none;endFill=0;strokeWidth=2;strokeColor=#6382B0;startFill=1;startArrow=classicThin;labelBackgroundColor=#F5F5F5;" parent="9MTcLaLqjoIEcqOG1wvj-1" source="OF_y1TKzcRP8yUNRRijT-50" target="OF_y1TKzcRP8yUNRRijT-35" edge="1">
          <mxGeometry relative="1" as="geometry" />
        </mxCell>
        <mxCell id="OF_y1TKzcRP8yUNRRijT-50" value="" style="rhombus;whiteSpace=wrap;html=1;fillColor=#1ba1e2;strokeColor=#006EAF;fontColor=#ffffff;" parent="9MTcLaLqjoIEcqOG1wvj-1" vertex="1">
          <mxGeometry x="480" y="100" width="30" height="30" as="geometry" />
        </mxCell>
        <mxCell id="OF_y1TKzcRP8yUNRRijT-51" style="edgeStyle=none;rounded=0;orthogonalLoop=1;jettySize=auto;html=1;endArrow=none;endFill=0;strokeWidth=1;dashed=1;exitX=0.5;exitY=0;exitDx=0;exitDy=0;" parent="9MTcLaLqjoIEcqOG1wvj-1" source="OF_y1TKzcRP8yUNRRijT-59" target="OF_y1TKzcRP8yUNRRijT-60" edge="1">
          <mxGeometry relative="1" as="geometry">
            <mxPoint x="595" y="275" as="targetPoint" />
            <mxPoint x="610" y="420" as="sourcePoint" />
          </mxGeometry>
        </mxCell>
        <mxCell id="OF_y1TKzcRP8yUNRRijT-53" value="H2" style="text;html=1;strokeColor=none;fillColor=none;align=center;verticalAlign=middle;whiteSpace=wrap;rounded=0;" parent="9MTcLaLqjoIEcqOG1wvj-1" vertex="1">
          <mxGeometry x="945" y="90" width="40" height="20" as="geometry" />
        </mxCell>
        <mxCell id="OF_y1TKzcRP8yUNRRijT-54" value="C2H4" style="text;html=1;strokeColor=none;fillColor=none;align=center;verticalAlign=middle;whiteSpace=wrap;rounded=0;" parent="9MTcLaLqjoIEcqOG1wvj-1" vertex="1">
          <mxGeometry x="870" y="90" width="40" height="20" as="geometry" />
        </mxCell>
        <mxCell id="OF_y1TKzcRP8yUNRRijT-55" value="C2H6" style="text;html=1;strokeColor=none;fillColor=none;align=center;verticalAlign=middle;whiteSpace=wrap;rounded=0;" parent="9MTcLaLqjoIEcqOG1wvj-1" vertex="1">
          <mxGeometry x="790" y="90" width="40" height="20" as="geometry" />
        </mxCell>
        <mxCell id="OF_y1TKzcRP8yUNRRijT-56" value="hasOutputParticipant" style="edgeStyle=orthogonalEdgeStyle;curved=1;rounded=0;orthogonalLoop=1;jettySize=auto;html=1;endArrow=none;endFill=0;strokeColor=#6382B0;strokeWidth=2;exitX=0.5;exitY=1;exitDx=0;exitDy=0;entryX=1;entryY=0.5;entryDx=0;entryDy=0;startFill=1;startArrow=classicThin;labelBackgroundColor=#F5F5F5;" parent="9MTcLaLqjoIEcqOG1wvj-1" source="OF_y1TKzcRP8yUNRRijT-43" target="OF_y1TKzcRP8yUNRRijT-35" edge="1">
          <mxGeometry relative="1" as="geometry">
            <mxPoint x="850" y="90" as="sourcePoint" />
            <mxPoint x="643" y="92" as="targetPoint" />
            <Array as="points">
              <mxPoint x="865" y="130" />
              <mxPoint x="650" y="130" />
            </Array>
          </mxGeometry>
        </mxCell>
        <mxCell id="OF_y1TKzcRP8yUNRRijT-57" value="hasOutputParticipant" style="edgeStyle=orthogonalEdgeStyle;curved=1;rounded=0;orthogonalLoop=1;jettySize=auto;html=1;endArrow=none;endFill=0;strokeColor=#6382B0;exitX=0.5;exitY=1;exitDx=0;exitDy=0;strokeWidth=2;entryX=1;entryY=1;entryDx=0;entryDy=0;startFill=1;startArrow=classicThin;labelBackgroundColor=#F5F5F5;" parent="9MTcLaLqjoIEcqOG1wvj-1" source="OF_y1TKzcRP8yUNRRijT-45" target="OF_y1TKzcRP8yUNRRijT-35" edge="1">
          <mxGeometry x="-0.3244" relative="1" as="geometry">
            <mxPoint x="797.5" y="97.5" as="sourcePoint" />
            <mxPoint x="660" y="140" as="targetPoint" />
            <Array as="points">
              <mxPoint x="945" y="150" />
              <mxPoint x="643" y="150" />
            </Array>
            <mxPoint as="offset" />
          </mxGeometry>
        </mxCell>
        <mxCell id="OF_y1TKzcRP8yUNRRijT-58" value="emmo:Model" style="ellipse;whiteSpace=wrap;html=1;fillColor=#fff2cc;strokeColor=#d6b656;" parent="9MTcLaLqjoIEcqOG1wvj-1" vertex="1">
          <mxGeometry x="663" y="-190" width="107" height="40" as="geometry" />
        </mxCell>
        <mxCell id="OF_y1TKzcRP8yUNRRijT-59" value="&lt;b&gt;Data object&lt;/b&gt;" style="shape=document;whiteSpace=wrap;html=1;boundedLbl=1;align=center;" parent="9MTcLaLqjoIEcqOG1wvj-1" vertex="1">
          <mxGeometry x="555" y="300" width="90" height="30" as="geometry" />
        </mxCell>
        <mxCell id="OF_y1TKzcRP8yUNRRijT-60" value="&lt;b&gt;Datamodel: Molecule&lt;/b&gt;&lt;br&gt;number_of_atoms&lt;br&gt;chemical_symbols&lt;br&gt;positions&lt;br&gt;energy" style="whiteSpace=wrap;html=1;rounded=0;align=left;strokeColor=#82b366;fillColor=#d5e8d4;" parent="9MTcLaLqjoIEcqOG1wvj-1" vertex="1">
          <mxGeometry x="520" y="210" width="130" height="75" as="geometry" />
        </mxCell>
        <mxCell id="OF_y1TKzcRP8yUNRRijT-61" value="&lt;b&gt;Datamodel: Reaction&lt;/b&gt;&lt;br&gt;reaction_energy&lt;br&gt;..." style="whiteSpace=wrap;html=1;rounded=0;align=left;strokeColor=#82b366;fillColor=#d5e8d4;" parent="9MTcLaLqjoIEcqOG1wvj-1" vertex="1">
          <mxGeometry x="862.5" y="210" width="125" height="50" as="geometry" />
        </mxCell>
        <mxCell id="OF_y1TKzcRP8yUNRRijT-63" value="" style="endArrow=classic;startArrow=classic;html=1;dashed=1;" parent="9MTcLaLqjoIEcqOG1wvj-1" target="OF_y1TKzcRP8yUNRRijT-21" edge="1">
          <mxGeometry width="50" height="50" relative="1" as="geometry">
            <mxPoint x="520" y="280" as="sourcePoint" />
            <mxPoint x="702.6478453315319" y="-30.217398263193672" as="targetPoint" />
          </mxGeometry>
        </mxCell>
        <mxCell id="OF_y1TKzcRP8yUNRRijT-64" value="" style="rounded=0;orthogonalLoop=1;jettySize=auto;html=1;entryX=1;entryY=0.5;entryDx=0;entryDy=0;endArrow=classicThin;endFill=1;strokeWidth=2;strokeColor=#3333FF;exitX=0;exitY=0.5;exitDx=0;exitDy=0;" parent="9MTcLaLqjoIEcqOG1wvj-1" source="OF_y1TKzcRP8yUNRRijT-24" target="OF_y1TKzcRP8yUNRRijT-47" edge="1">
          <mxGeometry relative="1" as="geometry">
            <mxPoint x="660.0002162634435" y="-49.94117647058829" as="sourcePoint" />
            <mxPoint x="352.42640687119297" y="-14.142135623731292" as="targetPoint" />
          </mxGeometry>
        </mxCell>
        <mxCell id="OF_y1TKzcRP8yUNRRijT-66" value="" style="rounded=0;whiteSpace=wrap;html=1;strokeColor=none;" parent="9MTcLaLqjoIEcqOG1wvj-1" vertex="1">
          <mxGeometry x="947" y="-200" width="60" height="60" as="geometry" />
        </mxCell>
      </root>
    </mxGraphModel>
  </diagram>
  <diagram id="2UH8379m5-2m1srFan3F" name="Page-5">
    <mxGraphModel dx="1422" dy="1884" grid="1" gridSize="10" guides="1" tooltips="1" connect="1" arrows="1" fold="1" page="1" pageScale="1" pageWidth="827" pageHeight="1169" math="0" shadow="0">
      <root>
        <mxCell id="Am3ytW58IX2vZomkxIeb-0" />
        <mxCell id="Am3ytW58IX2vZomkxIeb-1" parent="Am3ytW58IX2vZomkxIeb-0" />
        <mxCell id="Am3ytW58IX2vZomkxIeb-2" value="" style="endArrow=classic;startArrow=classic;html=1;dashed=1;" parent="Am3ytW58IX2vZomkxIeb-1" source="Am3ytW58IX2vZomkxIeb-62" target="Am3ytW58IX2vZomkxIeb-40" edge="1">
          <mxGeometry width="50" height="50" relative="1" as="geometry">
            <mxPoint x="320" y="160" as="sourcePoint" />
            <mxPoint x="300" y="160" as="targetPoint" />
          </mxGeometry>
        </mxCell>
        <mxCell id="Am3ytW58IX2vZomkxIeb-3" value="" style="endArrow=classic;startArrow=classic;html=1;dashed=1;" parent="Am3ytW58IX2vZomkxIeb-1" source="Am3ytW58IX2vZomkxIeb-63" target="Am3ytW58IX2vZomkxIeb-26" edge="1">
          <mxGeometry width="50" height="50" relative="1" as="geometry">
            <mxPoint x="880" y="240" as="sourcePoint" />
            <mxPoint x="310" y="20" as="targetPoint" />
          </mxGeometry>
        </mxCell>
        <mxCell id="Am3ytW58IX2vZomkxIeb-4" value="" style="endArrow=classic;startArrow=classic;html=1;dashed=1;exitX=0;exitY=0.5;exitDx=0;exitDy=0;" parent="Am3ytW58IX2vZomkxIeb-1" source="Am3ytW58IX2vZomkxIeb-63" target="Am3ytW58IX2vZomkxIeb-49" edge="1">
          <mxGeometry width="50" height="50" relative="1" as="geometry">
            <mxPoint x="902.8529632261036" y="220" as="sourcePoint" />
            <mxPoint x="643.6031465675412" y="18.387469985200596" as="targetPoint" />
          </mxGeometry>
        </mxCell>
        <mxCell id="Am3ytW58IX2vZomkxIeb-5" value="" style="rounded=1;whiteSpace=wrap;html=1;fillColor=#f5f5f5;strokeColor=#666666;fontColor=#333333;" parent="Am3ytW58IX2vZomkxIeb-1" vertex="1">
          <mxGeometry x="470" y="50" width="510" height="110" as="geometry" />
        </mxCell>
        <mxCell id="Am3ytW58IX2vZomkxIeb-6" value="" style="endArrow=classic;startArrow=classic;html=1;dashed=1;entryX=0;entryY=1;entryDx=0;entryDy=0;exitX=1;exitY=0.25;exitDx=0;exitDy=0;" parent="Am3ytW58IX2vZomkxIeb-1" source="Am3ytW58IX2vZomkxIeb-61" target="Am3ytW58IX2vZomkxIeb-43" edge="1">
          <mxGeometry width="50" height="50" relative="1" as="geometry">
            <mxPoint x="655.0039139650207" y="310" as="sourcePoint" />
            <mxPoint x="736.3511620987472" y="59.83243167325804" as="targetPoint" />
          </mxGeometry>
        </mxCell>
        <mxCell id="Am3ytW58IX2vZomkxIeb-7" value="" style="endArrow=classic;startArrow=classic;html=1;dashed=1;entryX=0;entryY=1;entryDx=0;entryDy=0;exitX=0.913;exitY=-0.178;exitDx=0;exitDy=0;exitPerimeter=0;" parent="Am3ytW58IX2vZomkxIeb-1" source="Am3ytW58IX2vZomkxIeb-9" target="Am3ytW58IX2vZomkxIeb-45" edge="1">
          <mxGeometry width="50" height="50" relative="1" as="geometry">
            <mxPoint x="665.0039139650205" y="320" as="sourcePoint" />
            <mxPoint x="787.5" y="102.5" as="targetPoint" />
          </mxGeometry>
        </mxCell>
        <mxCell id="Am3ytW58IX2vZomkxIeb-8" value="" style="endArrow=classic;startArrow=classic;html=1;dashed=1;entryX=0;entryY=1;entryDx=0;entryDy=0;exitX=0.913;exitY=-0.178;exitDx=0;exitDy=0;exitPerimeter=0;" parent="Am3ytW58IX2vZomkxIeb-1" target="Am3ytW58IX2vZomkxIeb-47" edge="1">
          <mxGeometry width="50" height="50" relative="1" as="geometry">
            <mxPoint x="667.1700000000001" y="324.65999999999985" as="sourcePoint" />
            <mxPoint x="867.5" y="102.5" as="targetPoint" />
          </mxGeometry>
        </mxCell>
        <mxCell id="Am3ytW58IX2vZomkxIeb-9" value="" style="shape=document;whiteSpace=wrap;html=1;boundedLbl=1;align=center;" parent="Am3ytW58IX2vZomkxIeb-1" vertex="1">
          <mxGeometry x="575" y="320" width="90" height="30" as="geometry" />
        </mxCell>
        <mxCell id="Am3ytW58IX2vZomkxIeb-10" value="" style="shape=document;whiteSpace=wrap;html=1;boundedLbl=1;align=center;" parent="Am3ytW58IX2vZomkxIeb-1" vertex="1">
          <mxGeometry x="565" y="310" width="90" height="30" as="geometry" />
        </mxCell>
        <mxCell id="Am3ytW58IX2vZomkxIeb-11" value="" style="edgeStyle=orthogonalEdgeStyle;rounded=0;orthogonalLoop=1;jettySize=auto;html=1;" parent="Am3ytW58IX2vZomkxIeb-1" source="Am3ytW58IX2vZomkxIeb-12" target="Am3ytW58IX2vZomkxIeb-17" edge="1">
          <mxGeometry relative="1" as="geometry" />
        </mxCell>
        <mxCell id="Am3ytW58IX2vZomkxIeb-12" value="" style="shape=datastore;whiteSpace=wrap;html=1;fillColor=#dae8fc;strokeColor=#6c8ebf;" parent="Am3ytW58IX2vZomkxIeb-1" vertex="1">
          <mxGeometry x="225" y="250" width="120" height="130" as="geometry" />
        </mxCell>
        <mxCell id="Am3ytW58IX2vZomkxIeb-13" value="h2.xyz" style="shape=document;whiteSpace=wrap;html=1;boundedLbl=1;" parent="Am3ytW58IX2vZomkxIeb-1" vertex="1">
          <mxGeometry x="235" y="300" width="80" height="30" as="geometry" />
        </mxCell>
        <mxCell id="Am3ytW58IX2vZomkxIeb-14" value="c2h4.xyz" style="shape=document;whiteSpace=wrap;html=1;boundedLbl=1;" parent="Am3ytW58IX2vZomkxIeb-1" vertex="1">
          <mxGeometry x="245" y="320" width="80" height="30" as="geometry" />
        </mxCell>
        <mxCell id="Am3ytW58IX2vZomkxIeb-15" value="c2h6.xyz" style="shape=document;whiteSpace=wrap;html=1;boundedLbl=1;" parent="Am3ytW58IX2vZomkxIeb-1" vertex="1">
          <mxGeometry x="255" y="340" width="80" height="30" as="geometry" />
        </mxCell>
        <mxCell id="Am3ytW58IX2vZomkxIeb-16" style="edgeStyle=orthogonalEdgeStyle;rounded=0;orthogonalLoop=1;jettySize=auto;html=1;entryX=0;entryY=0.5;entryDx=0;entryDy=0;" parent="Am3ytW58IX2vZomkxIeb-1" source="Am3ytW58IX2vZomkxIeb-17" edge="1">
          <mxGeometry relative="1" as="geometry">
            <mxPoint x="555" y="315" as="targetPoint" />
          </mxGeometry>
        </mxCell>
        <mxCell id="Am3ytW58IX2vZomkxIeb-17" value="Molecular&lt;br&gt;energy&lt;br&gt;calculator" style="shape=process;whiteSpace=wrap;html=1;backgroundOutline=1;fillColor=#e1d5e7;strokeColor=#9673a6;" parent="Am3ytW58IX2vZomkxIeb-1" vertex="1">
          <mxGeometry x="385" y="285" width="120" height="60" as="geometry" />
        </mxCell>
        <mxCell id="Am3ytW58IX2vZomkxIeb-18" style="edgeStyle=none;rounded=1;orthogonalLoop=1;jettySize=auto;html=1;entryX=0.5;entryY=1;entryDx=0;entryDy=0;endArrow=none;startArrow=classic;startFill=1;endFill=0;" parent="Am3ytW58IX2vZomkxIeb-1" source="Am3ytW58IX2vZomkxIeb-19" target="Am3ytW58IX2vZomkxIeb-5" edge="1">
          <mxGeometry relative="1" as="geometry" />
        </mxCell>
        <mxCell id="Am3ytW58IX2vZomkxIeb-19" value="Reaction&lt;br&gt;energy&lt;br&gt;calculator" style="shape=process;whiteSpace=wrap;html=1;backgroundOutline=1;fillColor=#e1d5e7;strokeColor=#9673a6;" parent="Am3ytW58IX2vZomkxIeb-1" vertex="1">
          <mxGeometry x="705" y="285" width="120" height="60" as="geometry" />
        </mxCell>
        <mxCell id="Am3ytW58IX2vZomkxIeb-20" style="edgeStyle=orthogonalEdgeStyle;rounded=0;orthogonalLoop=1;jettySize=auto;html=1;entryX=0;entryY=0.5;entryDx=0;entryDy=0;exitX=1;exitY=0.25;exitDx=0;exitDy=0;" parent="Am3ytW58IX2vZomkxIeb-1" target="Am3ytW58IX2vZomkxIeb-19" edge="1">
          <mxGeometry relative="1" as="geometry">
            <mxPoint x="655" y="315" as="sourcePoint" />
          </mxGeometry>
        </mxCell>
        <mxCell id="Am3ytW58IX2vZomkxIeb-21" value="emmo:Process" style="ellipse;whiteSpace=wrap;html=1;fillColor=#fff2cc;strokeColor=#d6b656;" parent="Am3ytW58IX2vZomkxIeb-1" vertex="1">
          <mxGeometry x="550" y="-130" width="100" height="40" as="geometry" />
        </mxCell>
        <mxCell id="Am3ytW58IX2vZomkxIeb-22" style="rounded=0;orthogonalLoop=1;jettySize=auto;html=1;endArrow=block;endFill=0;strokeWidth=2;" parent="Am3ytW58IX2vZomkxIeb-1" source="Am3ytW58IX2vZomkxIeb-23" target="Am3ytW58IX2vZomkxIeb-27" edge="1">
          <mxGeometry relative="1" as="geometry" />
        </mxCell>
        <mxCell id="Am3ytW58IX2vZomkxIeb-23" value="BindingEnergy" style="ellipse;whiteSpace=wrap;html=1;fillColor=#fff2cc;strokeColor=#d6b656;" parent="Am3ytW58IX2vZomkxIeb-1" vertex="1">
          <mxGeometry x="240" y="-30" width="120" height="40" as="geometry" />
        </mxCell>
        <mxCell id="Am3ytW58IX2vZomkxIeb-24" style="edgeStyle=none;rounded=0;orthogonalLoop=1;jettySize=auto;html=1;endArrow=block;endFill=0;strokeWidth=2;" parent="Am3ytW58IX2vZomkxIeb-1" source="Am3ytW58IX2vZomkxIeb-26" target="Am3ytW58IX2vZomkxIeb-21" edge="1">
          <mxGeometry relative="1" as="geometry">
            <mxPoint x="640" y="-90" as="targetPoint" />
          </mxGeometry>
        </mxCell>
        <mxCell id="Am3ytW58IX2vZomkxIeb-25" value="hasInputParticipant" style="edgeStyle=orthogonalEdgeStyle;curved=1;rounded=0;orthogonalLoop=1;jettySize=auto;html=1;endArrow=none;endFill=0;strokeColor=#6382B0;exitX=0;exitY=0.5;exitDx=0;exitDy=0;entryX=1;entryY=0;entryDx=0;entryDy=0;strokeWidth=2;startArrow=classicThin;startFill=1;labelBackgroundColor=#F5F5F5;" parent="Am3ytW58IX2vZomkxIeb-1" source="Am3ytW58IX2vZomkxIeb-43" target="Am3ytW58IX2vZomkxIeb-37" edge="1">
          <mxGeometry relative="1" as="geometry">
            <mxPoint x="460" y="120" as="sourcePoint" />
            <mxPoint x="680" y="140" as="targetPoint" />
            <Array as="points">
              <mxPoint x="642" y="85" />
            </Array>
          </mxGeometry>
        </mxCell>
        <mxCell id="Am3ytW58IX2vZomkxIeb-26" value="ChemicalReaction" style="ellipse;whiteSpace=wrap;html=1;fillColor=#fff2cc;strokeColor=#d6b656;" parent="Am3ytW58IX2vZomkxIeb-1" vertex="1">
          <mxGeometry x="550" y="-30" width="120" height="40" as="geometry" />
        </mxCell>
        <mxCell id="Am3ytW58IX2vZomkxIeb-27" value="emmo:PhysicalQuantity" style="ellipse;whiteSpace=wrap;html=1;fillColor=#fff2cc;strokeColor=#d6b656;" parent="Am3ytW58IX2vZomkxIeb-1" vertex="1">
          <mxGeometry x="290" y="-130" width="146" height="40" as="geometry" />
        </mxCell>
        <mxCell id="Am3ytW58IX2vZomkxIeb-28" style="edgeStyle=none;rounded=0;orthogonalLoop=1;jettySize=auto;html=1;endArrow=block;endFill=0;strokeWidth=2;" parent="Am3ytW58IX2vZomkxIeb-1" source="Am3ytW58IX2vZomkxIeb-29" target="Am3ytW58IX2vZomkxIeb-33" edge="1">
          <mxGeometry relative="1" as="geometry" />
        </mxCell>
        <mxCell id="Am3ytW58IX2vZomkxIeb-29" value="Reactant" style="ellipse;whiteSpace=wrap;html=1;fillColor=#fff2cc;strokeColor=#d6b656;" parent="Am3ytW58IX2vZomkxIeb-1" vertex="1">
          <mxGeometry x="782.5" y="-30" width="80" height="40" as="geometry" />
        </mxCell>
        <mxCell id="Am3ytW58IX2vZomkxIeb-30" style="edgeStyle=none;rounded=0;orthogonalLoop=1;jettySize=auto;html=1;endArrow=block;endFill=0;strokeWidth=2;" parent="Am3ytW58IX2vZomkxIeb-1" source="Am3ytW58IX2vZomkxIeb-31" target="Am3ytW58IX2vZomkxIeb-33" edge="1">
          <mxGeometry relative="1" as="geometry" />
        </mxCell>
        <mxCell id="Am3ytW58IX2vZomkxIeb-31" value="Product" style="ellipse;whiteSpace=wrap;html=1;fillColor=#fff2cc;strokeColor=#d6b656;" parent="Am3ytW58IX2vZomkxIeb-1" vertex="1">
          <mxGeometry x="882.5" y="-30" width="85" height="40" as="geometry" />
        </mxCell>
        <mxCell id="Am3ytW58IX2vZomkxIeb-32" style="edgeStyle=none;rounded=0;orthogonalLoop=1;jettySize=auto;html=1;endArrow=block;endFill=0;strokeWidth=2;" parent="Am3ytW58IX2vZomkxIeb-1" source="Am3ytW58IX2vZomkxIeb-33" target="Am3ytW58IX2vZomkxIeb-34" edge="1">
          <mxGeometry relative="1" as="geometry" />
        </mxCell>
        <mxCell id="Am3ytW58IX2vZomkxIeb-33" value="ChemicalSubstance" style="ellipse;whiteSpace=wrap;html=1;fillColor=#fff2cc;strokeColor=#d6b656;" parent="Am3ytW58IX2vZomkxIeb-1" vertex="1">
          <mxGeometry x="827" y="-130" width="120" height="40" as="geometry" />
        </mxCell>
        <mxCell id="Am3ytW58IX2vZomkxIeb-34" value="emmo:Matter" style="ellipse;whiteSpace=wrap;html=1;fillColor=#fff2cc;strokeColor=#d6b656;" parent="Am3ytW58IX2vZomkxIeb-1" vertex="1">
          <mxGeometry x="790" y="-190" width="107" height="40" as="geometry" />
        </mxCell>
        <mxCell id="Am3ytW58IX2vZomkxIeb-35" style="edgeStyle=orthogonalEdgeStyle;rounded=0;orthogonalLoop=1;jettySize=auto;html=1;entryX=0;entryY=0.5;entryDx=0;entryDy=0;exitX=1;exitY=0.5;exitDx=0;exitDy=0;" parent="Am3ytW58IX2vZomkxIeb-1" source="Am3ytW58IX2vZomkxIeb-19" target="Am3ytW58IX2vZomkxIeb-64" edge="1">
          <mxGeometry relative="1" as="geometry">
            <mxPoint x="845" y="360" as="sourcePoint" />
            <mxPoint x="885" y="315" as="targetPoint" />
          </mxGeometry>
        </mxCell>
        <mxCell id="Am3ytW58IX2vZomkxIeb-36" style="edgeStyle=none;rounded=0;orthogonalLoop=1;jettySize=auto;html=1;endArrow=block;endFill=0;strokeColor=#000000;strokeWidth=2;" parent="Am3ytW58IX2vZomkxIeb-1" source="Am3ytW58IX2vZomkxIeb-37" target="Am3ytW58IX2vZomkxIeb-26" edge="1">
          <mxGeometry relative="1" as="geometry" />
        </mxCell>
        <mxCell id="Am3ytW58IX2vZomkxIeb-37" value="" style="rhombus;whiteSpace=wrap;html=1;fillColor=#1ba1e2;strokeColor=#006EAF;fontColor=#ffffff;" parent="Am3ytW58IX2vZomkxIeb-1" vertex="1">
          <mxGeometry x="620" y="110" width="30" height="30" as="geometry" />
        </mxCell>
        <mxCell id="Am3ytW58IX2vZomkxIeb-38" value="hasProperty exactly 1" style="edgeStyle=orthogonalEdgeStyle;rounded=0;orthogonalLoop=1;jettySize=auto;html=1;entryX=1;entryY=0;entryDx=0;entryDy=0;endArrow=classicThin;endFill=1;strokeWidth=2;curved=1;strokeColor=#3333FF;" parent="Am3ytW58IX2vZomkxIeb-1" source="Am3ytW58IX2vZomkxIeb-40" target="Am3ytW58IX2vZomkxIeb-23" edge="1">
          <mxGeometry relative="1" as="geometry" />
        </mxCell>
        <mxCell id="Am3ytW58IX2vZomkxIeb-39" value="isModelOf exactly 1" style="edgeStyle=orthogonalEdgeStyle;curved=1;rounded=0;orthogonalLoop=1;jettySize=auto;html=1;endArrow=classicThin;endFill=1;strokeColor=#3333FF;strokeWidth=2;entryX=0;entryY=0.5;entryDx=0;entryDy=0;" parent="Am3ytW58IX2vZomkxIeb-1" source="Am3ytW58IX2vZomkxIeb-40" target="Am3ytW58IX2vZomkxIeb-33" edge="1">
          <mxGeometry relative="1" as="geometry" />
        </mxCell>
        <mxCell id="Am3ytW58IX2vZomkxIeb-40" value="MoleculeModel" style="ellipse;whiteSpace=wrap;html=1;fillColor=#fff2cc;strokeColor=#d6b656;" parent="Am3ytW58IX2vZomkxIeb-1" vertex="1">
          <mxGeometry x="650" y="-80" width="100" height="40" as="geometry" />
        </mxCell>
        <mxCell id="Am3ytW58IX2vZomkxIeb-41" style="edgeStyle=none;rounded=0;orthogonalLoop=1;jettySize=auto;html=1;endArrow=block;endFill=0;strokeWidth=2;entryX=0.5;entryY=1;entryDx=0;entryDy=0;" parent="Am3ytW58IX2vZomkxIeb-1" source="Am3ytW58IX2vZomkxIeb-40" target="Am3ytW58IX2vZomkxIeb-60" edge="1">
          <mxGeometry relative="1" as="geometry">
            <mxPoint x="873.4788315819244" y="-19.924217241931274" as="sourcePoint" />
            <mxPoint x="886.3702963759845" y="-90.03663006791476" as="targetPoint" />
          </mxGeometry>
        </mxCell>
        <mxCell id="Am3ytW58IX2vZomkxIeb-42" style="edgeStyle=none;rounded=0;orthogonalLoop=1;jettySize=auto;html=1;endArrow=block;endFill=0;strokeColor=#000000;strokeWidth=2;" parent="Am3ytW58IX2vZomkxIeb-1" source="Am3ytW58IX2vZomkxIeb-43" target="Am3ytW58IX2vZomkxIeb-29" edge="1">
          <mxGeometry relative="1" as="geometry" />
        </mxCell>
        <mxCell id="Am3ytW58IX2vZomkxIeb-43" value="" style="rhombus;whiteSpace=wrap;html=1;fillColor=#1ba1e2;strokeColor=#006EAF;fontColor=#ffffff;" parent="Am3ytW58IX2vZomkxIeb-1" vertex="1">
          <mxGeometry x="770" y="70" width="30" height="30" as="geometry" />
        </mxCell>
        <mxCell id="Am3ytW58IX2vZomkxIeb-44" style="edgeStyle=none;rounded=0;orthogonalLoop=1;jettySize=auto;html=1;endArrow=block;endFill=0;strokeColor=#000000;strokeWidth=2;" parent="Am3ytW58IX2vZomkxIeb-1" source="Am3ytW58IX2vZomkxIeb-45" target="Am3ytW58IX2vZomkxIeb-31" edge="1">
          <mxGeometry relative="1" as="geometry" />
        </mxCell>
        <mxCell id="Am3ytW58IX2vZomkxIeb-45" value="" style="rhombus;whiteSpace=wrap;html=1;fillColor=#1ba1e2;strokeColor=#006EAF;fontColor=#ffffff;" parent="Am3ytW58IX2vZomkxIeb-1" vertex="1">
          <mxGeometry x="850" y="70" width="30" height="30" as="geometry" />
        </mxCell>
        <mxCell id="Am3ytW58IX2vZomkxIeb-46" style="edgeStyle=none;rounded=0;orthogonalLoop=1;jettySize=auto;html=1;endArrow=block;endFill=0;strokeColor=#000000;strokeWidth=2;" parent="Am3ytW58IX2vZomkxIeb-1" source="Am3ytW58IX2vZomkxIeb-47" target="Am3ytW58IX2vZomkxIeb-31" edge="1">
          <mxGeometry relative="1" as="geometry" />
        </mxCell>
        <mxCell id="Am3ytW58IX2vZomkxIeb-47" value="" style="rhombus;whiteSpace=wrap;html=1;fillColor=#1ba1e2;strokeColor=#006EAF;fontColor=#ffffff;" parent="Am3ytW58IX2vZomkxIeb-1" vertex="1">
          <mxGeometry x="930" y="70" width="30" height="30" as="geometry" />
        </mxCell>
        <mxCell id="Am3ytW58IX2vZomkxIeb-48" style="edgeStyle=none;rounded=0;orthogonalLoop=1;jettySize=auto;html=1;endArrow=block;endFill=0;strokeColor=#000000;strokeWidth=2;" parent="Am3ytW58IX2vZomkxIeb-1" source="Am3ytW58IX2vZomkxIeb-49" target="Am3ytW58IX2vZomkxIeb-27" edge="1">
          <mxGeometry relative="1" as="geometry" />
        </mxCell>
        <mxCell id="Am3ytW58IX2vZomkxIeb-49" value="ReactionEnergy" style="ellipse;whiteSpace=wrap;html=1;fillColor=#fff2cc;strokeColor=#d6b656;" parent="Am3ytW58IX2vZomkxIeb-1" vertex="1">
          <mxGeometry x="390" y="-30" width="120" height="40" as="geometry" />
        </mxCell>
        <mxCell id="Am3ytW58IX2vZomkxIeb-50" style="edgeStyle=none;rounded=0;orthogonalLoop=1;jettySize=auto;html=1;endArrow=block;endFill=0;strokeColor=#000000;strokeWidth=2;" parent="Am3ytW58IX2vZomkxIeb-1" source="Am3ytW58IX2vZomkxIeb-52" target="Am3ytW58IX2vZomkxIeb-49" edge="1">
          <mxGeometry relative="1" as="geometry" />
        </mxCell>
        <mxCell id="Am3ytW58IX2vZomkxIeb-51" value="hasProperty" style="edgeStyle=none;rounded=0;orthogonalLoop=1;jettySize=auto;html=1;entryX=0;entryY=0.5;entryDx=0;entryDy=0;endArrow=none;endFill=0;strokeWidth=2;strokeColor=#6382B0;startFill=1;startArrow=classicThin;labelBackgroundColor=#F5F5F5;" parent="Am3ytW58IX2vZomkxIeb-1" source="Am3ytW58IX2vZomkxIeb-52" target="Am3ytW58IX2vZomkxIeb-37" edge="1">
          <mxGeometry relative="1" as="geometry" />
        </mxCell>
        <mxCell id="Am3ytW58IX2vZomkxIeb-52" value="" style="rhombus;whiteSpace=wrap;html=1;fillColor=#1ba1e2;strokeColor=#006EAF;fontColor=#ffffff;" parent="Am3ytW58IX2vZomkxIeb-1" vertex="1">
          <mxGeometry x="480" y="100" width="30" height="30" as="geometry" />
        </mxCell>
        <mxCell id="Am3ytW58IX2vZomkxIeb-53" style="edgeStyle=none;rounded=0;orthogonalLoop=1;jettySize=auto;html=1;endArrow=none;endFill=0;strokeWidth=1;dashed=1;exitX=0.5;exitY=0;exitDx=0;exitDy=0;" parent="Am3ytW58IX2vZomkxIeb-1" source="Am3ytW58IX2vZomkxIeb-61" target="Am3ytW58IX2vZomkxIeb-62" edge="1">
          <mxGeometry relative="1" as="geometry">
            <mxPoint x="595" y="275" as="targetPoint" />
            <mxPoint x="610" y="420" as="sourcePoint" />
          </mxGeometry>
        </mxCell>
        <mxCell id="Am3ytW58IX2vZomkxIeb-54" style="edgeStyle=none;rounded=0;orthogonalLoop=1;jettySize=auto;html=1;endArrow=none;endFill=0;strokeWidth=1;entryX=0.5;entryY=0;entryDx=0;entryDy=0;dashed=1;" parent="Am3ytW58IX2vZomkxIeb-1" source="Am3ytW58IX2vZomkxIeb-63" target="Am3ytW58IX2vZomkxIeb-64" edge="1">
          <mxGeometry relative="1" as="geometry">
            <mxPoint x="925" y="275" as="targetPoint" />
            <mxPoint x="760" y="240" as="sourcePoint" />
          </mxGeometry>
        </mxCell>
        <mxCell id="Am3ytW58IX2vZomkxIeb-55" value="H2" style="text;html=1;strokeColor=none;fillColor=none;align=center;verticalAlign=middle;whiteSpace=wrap;rounded=0;" parent="Am3ytW58IX2vZomkxIeb-1" vertex="1">
          <mxGeometry x="945" y="90" width="40" height="20" as="geometry" />
        </mxCell>
        <mxCell id="Am3ytW58IX2vZomkxIeb-56" value="C2H4" style="text;html=1;strokeColor=none;fillColor=none;align=center;verticalAlign=middle;whiteSpace=wrap;rounded=0;" parent="Am3ytW58IX2vZomkxIeb-1" vertex="1">
          <mxGeometry x="870" y="90" width="40" height="20" as="geometry" />
        </mxCell>
        <mxCell id="Am3ytW58IX2vZomkxIeb-57" value="C2H6" style="text;html=1;strokeColor=none;fillColor=none;align=center;verticalAlign=middle;whiteSpace=wrap;rounded=0;" parent="Am3ytW58IX2vZomkxIeb-1" vertex="1">
          <mxGeometry x="790" y="90" width="40" height="20" as="geometry" />
        </mxCell>
        <mxCell id="Am3ytW58IX2vZomkxIeb-58" value="hasOutputParticipant" style="edgeStyle=orthogonalEdgeStyle;curved=1;rounded=0;orthogonalLoop=1;jettySize=auto;html=1;endArrow=none;endFill=0;strokeColor=#6382B0;strokeWidth=2;exitX=0.5;exitY=1;exitDx=0;exitDy=0;entryX=1;entryY=0.5;entryDx=0;entryDy=0;startFill=1;startArrow=classicThin;labelBackgroundColor=#F5F5F5;" parent="Am3ytW58IX2vZomkxIeb-1" source="Am3ytW58IX2vZomkxIeb-45" target="Am3ytW58IX2vZomkxIeb-37" edge="1">
          <mxGeometry relative="1" as="geometry">
            <mxPoint x="850" y="90" as="sourcePoint" />
            <mxPoint x="643" y="92" as="targetPoint" />
            <Array as="points">
              <mxPoint x="865" y="130" />
              <mxPoint x="650" y="130" />
            </Array>
          </mxGeometry>
        </mxCell>
        <mxCell id="Am3ytW58IX2vZomkxIeb-59" value="hasOutputParticipant" style="edgeStyle=orthogonalEdgeStyle;curved=1;rounded=0;orthogonalLoop=1;jettySize=auto;html=1;endArrow=none;endFill=0;strokeColor=#6382B0;exitX=0.5;exitY=1;exitDx=0;exitDy=0;strokeWidth=2;entryX=1;entryY=1;entryDx=0;entryDy=0;startFill=1;startArrow=classicThin;labelBackgroundColor=#F5F5F5;" parent="Am3ytW58IX2vZomkxIeb-1" source="Am3ytW58IX2vZomkxIeb-47" target="Am3ytW58IX2vZomkxIeb-37" edge="1">
          <mxGeometry x="-0.3244" relative="1" as="geometry">
            <mxPoint x="797.5" y="97.5" as="sourcePoint" />
            <mxPoint x="660" y="140" as="targetPoint" />
            <Array as="points">
              <mxPoint x="945" y="150" />
              <mxPoint x="643" y="150" />
            </Array>
            <mxPoint as="offset" />
          </mxGeometry>
        </mxCell>
        <mxCell id="Am3ytW58IX2vZomkxIeb-60" value="emmo:Model" style="ellipse;whiteSpace=wrap;html=1;fillColor=#fff2cc;strokeColor=#d6b656;" parent="Am3ytW58IX2vZomkxIeb-1" vertex="1">
          <mxGeometry x="663" y="-190" width="107" height="40" as="geometry" />
        </mxCell>
        <mxCell id="Am3ytW58IX2vZomkxIeb-61" value="&lt;b&gt;Data object&lt;/b&gt;" style="shape=document;whiteSpace=wrap;html=1;boundedLbl=1;align=center;" parent="Am3ytW58IX2vZomkxIeb-1" vertex="1">
          <mxGeometry x="555" y="300" width="90" height="30" as="geometry" />
        </mxCell>
        <mxCell id="Am3ytW58IX2vZomkxIeb-62" value="&lt;b&gt;Datamodel: Molecule&lt;/b&gt;&lt;br&gt;number_of_atoms&lt;br&gt;chemical_symbols&lt;br&gt;positions&lt;br&gt;energy" style="whiteSpace=wrap;html=1;rounded=0;align=left;strokeColor=#82b366;fillColor=#d5e8d4;" parent="Am3ytW58IX2vZomkxIeb-1" vertex="1">
          <mxGeometry x="520" y="210" width="130" height="75" as="geometry" />
        </mxCell>
        <mxCell id="Am3ytW58IX2vZomkxIeb-63" value="&lt;b&gt;Datamodel: Reaction&lt;/b&gt;&lt;br&gt;reaction_energy&lt;br&gt;..." style="whiteSpace=wrap;html=1;rounded=0;align=left;strokeColor=#82b366;fillColor=#d5e8d4;" parent="Am3ytW58IX2vZomkxIeb-1" vertex="1">
          <mxGeometry x="862.5" y="210" width="125" height="50" as="geometry" />
        </mxCell>
        <mxCell id="Am3ytW58IX2vZomkxIeb-64" value="&lt;b&gt;Data object&lt;/b&gt;&lt;br&gt;Reaction_energy = 1.4 eV" style="shape=document;whiteSpace=wrap;html=1;boundedLbl=1;align=center;" parent="Am3ytW58IX2vZomkxIeb-1" vertex="1">
          <mxGeometry x="850" y="290" width="150" height="50" as="geometry" />
        </mxCell>
        <mxCell id="Am3ytW58IX2vZomkxIeb-65" value="" style="endArrow=classic;startArrow=classic;html=1;dashed=1;" parent="Am3ytW58IX2vZomkxIeb-1" target="Am3ytW58IX2vZomkxIeb-23" edge="1">
          <mxGeometry width="50" height="50" relative="1" as="geometry">
            <mxPoint x="520" y="280" as="sourcePoint" />
            <mxPoint x="702.6478453315319" y="-30.217398263193672" as="targetPoint" />
          </mxGeometry>
        </mxCell>
        <mxCell id="Am3ytW58IX2vZomkxIeb-66" value="" style="rounded=0;orthogonalLoop=1;jettySize=auto;html=1;entryX=1;entryY=0.5;entryDx=0;entryDy=0;endArrow=classicThin;endFill=1;strokeWidth=2;strokeColor=#3333FF;exitX=0;exitY=0.5;exitDx=0;exitDy=0;" parent="Am3ytW58IX2vZomkxIeb-1" source="Am3ytW58IX2vZomkxIeb-26" target="Am3ytW58IX2vZomkxIeb-49" edge="1">
          <mxGeometry relative="1" as="geometry">
            <mxPoint x="660.0002162634435" y="-49.94117647058829" as="sourcePoint" />
            <mxPoint x="352.42640687119297" y="-14.142135623731292" as="targetPoint" />
          </mxGeometry>
        </mxCell>
        <mxCell id="Am3ytW58IX2vZomkxIeb-67" value="" style="endArrow=classic;startArrow=classic;html=1;dashed=1;entryX=1;entryY=1;entryDx=0;entryDy=0;" parent="Am3ytW58IX2vZomkxIeb-1" source="Am3ytW58IX2vZomkxIeb-64" target="Am3ytW58IX2vZomkxIeb-52" edge="1">
          <mxGeometry width="50" height="50" relative="1" as="geometry">
            <mxPoint x="530" y="290" as="sourcePoint" />
            <mxPoint x="324.73749932197256" y="19.38729857329031" as="targetPoint" />
          </mxGeometry>
        </mxCell>
        <mxCell id="Am3ytW58IX2vZomkxIeb-68" value="" style="rounded=0;whiteSpace=wrap;html=1;strokeColor=none;" parent="Am3ytW58IX2vZomkxIeb-1" vertex="1">
          <mxGeometry x="947" y="-200" width="60" height="60" as="geometry" />
        </mxCell>
      </root>
    </mxGraphModel>
  </diagram>
  <diagram id="uNtZyjaV7PkIyP_jx7IK" name="Page-6">
    <mxGraphModel dx="1422" dy="1884" grid="1" gridSize="10" guides="1" tooltips="1" connect="1" arrows="1" fold="1" page="1" pageScale="1" pageWidth="827" pageHeight="1169" math="0" shadow="0">
      <root>
        <mxCell id="OOdKAEBMmgLaQuy--NHw-0" />
        <mxCell id="OOdKAEBMmgLaQuy--NHw-1" parent="OOdKAEBMmgLaQuy--NHw-0" />
        <mxCell id="OOdKAEBMmgLaQuy--NHw-2" value="" style="endArrow=classic;startArrow=classic;html=1;dashed=1;exitX=0;exitY=0.75;exitDx=0;exitDy=0;" parent="OOdKAEBMmgLaQuy--NHw-1" source="OOdKAEBMmgLaQuy--NHw-74" target="OOdKAEBMmgLaQuy--NHw-23" edge="1">
          <mxGeometry width="50" height="50" relative="1" as="geometry">
            <mxPoint x="320" y="160" as="sourcePoint" />
            <mxPoint x="300" y="160" as="targetPoint" />
          </mxGeometry>
        </mxCell>
        <mxCell id="OOdKAEBMmgLaQuy--NHw-9" value="" style="shape=document;whiteSpace=wrap;html=1;boundedLbl=1;align=center;" parent="OOdKAEBMmgLaQuy--NHw-1" vertex="1">
          <mxGeometry x="575" y="320" width="90" height="30" as="geometry" />
        </mxCell>
        <mxCell id="OOdKAEBMmgLaQuy--NHw-10" value="" style="shape=document;whiteSpace=wrap;html=1;boundedLbl=1;align=center;" parent="OOdKAEBMmgLaQuy--NHw-1" vertex="1">
          <mxGeometry x="565" y="310" width="90" height="30" as="geometry" />
        </mxCell>
        <mxCell id="OOdKAEBMmgLaQuy--NHw-11" value="" style="edgeStyle=orthogonalEdgeStyle;rounded=0;orthogonalLoop=1;jettySize=auto;html=1;" parent="OOdKAEBMmgLaQuy--NHw-1" source="OOdKAEBMmgLaQuy--NHw-12" target="OOdKAEBMmgLaQuy--NHw-17" edge="1">
          <mxGeometry relative="1" as="geometry" />
        </mxCell>
        <mxCell id="OOdKAEBMmgLaQuy--NHw-12" value="" style="shape=datastore;whiteSpace=wrap;html=1;fillColor=#dae8fc;strokeColor=#6c8ebf;" parent="OOdKAEBMmgLaQuy--NHw-1" vertex="1">
          <mxGeometry x="225" y="250" width="120" height="130" as="geometry" />
        </mxCell>
        <mxCell id="OOdKAEBMmgLaQuy--NHw-13" value="h2.xyz" style="shape=document;whiteSpace=wrap;html=1;boundedLbl=1;" parent="OOdKAEBMmgLaQuy--NHw-1" vertex="1">
          <mxGeometry x="235" y="300" width="80" height="30" as="geometry" />
        </mxCell>
        <mxCell id="OOdKAEBMmgLaQuy--NHw-14" value="c2h4.xyz" style="shape=document;whiteSpace=wrap;html=1;boundedLbl=1;" parent="OOdKAEBMmgLaQuy--NHw-1" vertex="1">
          <mxGeometry x="245" y="320" width="80" height="30" as="geometry" />
        </mxCell>
        <mxCell id="OOdKAEBMmgLaQuy--NHw-15" value="c2h6.xyz" style="shape=document;whiteSpace=wrap;html=1;boundedLbl=1;" parent="OOdKAEBMmgLaQuy--NHw-1" vertex="1">
          <mxGeometry x="255" y="340" width="80" height="30" as="geometry" />
        </mxCell>
        <mxCell id="OOdKAEBMmgLaQuy--NHw-16" style="edgeStyle=orthogonalEdgeStyle;rounded=0;orthogonalLoop=1;jettySize=auto;html=1;entryX=0;entryY=0.5;entryDx=0;entryDy=0;" parent="OOdKAEBMmgLaQuy--NHw-1" source="OOdKAEBMmgLaQuy--NHw-17" edge="1">
          <mxGeometry relative="1" as="geometry">
            <mxPoint x="555" y="315" as="targetPoint" />
          </mxGeometry>
        </mxCell>
        <mxCell id="OOdKAEBMmgLaQuy--NHw-17" value="Molecular&lt;br&gt;energy&lt;br&gt;calculator" style="shape=process;whiteSpace=wrap;html=1;backgroundOutline=1;fillColor=#e1d5e7;strokeColor=#9673a6;" parent="OOdKAEBMmgLaQuy--NHw-1" vertex="1">
          <mxGeometry x="385" y="285" width="120" height="60" as="geometry" />
        </mxCell>
        <mxCell id="OOdKAEBMmgLaQuy--NHw-19" value="Reaction&lt;br&gt;energy&lt;br&gt;calculator" style="shape=process;whiteSpace=wrap;html=1;backgroundOutline=1;fillColor=#e1d5e7;strokeColor=#9673a6;" parent="OOdKAEBMmgLaQuy--NHw-1" vertex="1">
          <mxGeometry x="705" y="285" width="120" height="60" as="geometry" />
        </mxCell>
        <mxCell id="OOdKAEBMmgLaQuy--NHw-20" style="edgeStyle=orthogonalEdgeStyle;rounded=0;orthogonalLoop=1;jettySize=auto;html=1;entryX=0;entryY=0.5;entryDx=0;entryDy=0;exitX=1;exitY=0.25;exitDx=0;exitDy=0;" parent="OOdKAEBMmgLaQuy--NHw-1" target="OOdKAEBMmgLaQuy--NHw-19" edge="1">
          <mxGeometry relative="1" as="geometry">
            <mxPoint x="655" y="315" as="sourcePoint" />
          </mxGeometry>
        </mxCell>
        <mxCell id="OOdKAEBMmgLaQuy--NHw-21" value="emmo:Process" style="ellipse;whiteSpace=wrap;html=1;fillColor=#fff2cc;strokeColor=#d6b656;" parent="OOdKAEBMmgLaQuy--NHw-1" vertex="1">
          <mxGeometry x="550" y="-130" width="100" height="40" as="geometry" />
        </mxCell>
        <mxCell id="OOdKAEBMmgLaQuy--NHw-22" style="rounded=0;orthogonalLoop=1;jettySize=auto;html=1;endArrow=block;endFill=0;strokeWidth=2;" parent="OOdKAEBMmgLaQuy--NHw-1" source="OOdKAEBMmgLaQuy--NHw-23" target="OOdKAEBMmgLaQuy--NHw-27" edge="1">
          <mxGeometry relative="1" as="geometry" />
        </mxCell>
        <mxCell id="OOdKAEBMmgLaQuy--NHw-23" value="BindingEnergy" style="ellipse;whiteSpace=wrap;html=1;fillColor=#fff2cc;strokeColor=#d6b656;" parent="OOdKAEBMmgLaQuy--NHw-1" vertex="1">
          <mxGeometry x="240" y="-30" width="120" height="40" as="geometry" />
        </mxCell>
        <mxCell id="OOdKAEBMmgLaQuy--NHw-24" style="edgeStyle=none;rounded=0;orthogonalLoop=1;jettySize=auto;html=1;endArrow=block;endFill=0;strokeWidth=2;" parent="OOdKAEBMmgLaQuy--NHw-1" source="OOdKAEBMmgLaQuy--NHw-26" target="OOdKAEBMmgLaQuy--NHw-21" edge="1">
          <mxGeometry relative="1" as="geometry">
            <mxPoint x="640" y="-90" as="targetPoint" />
          </mxGeometry>
        </mxCell>
        <mxCell id="OOdKAEBMmgLaQuy--NHw-26" value="ChemicalReaction" style="ellipse;whiteSpace=wrap;html=1;fillColor=#fff2cc;strokeColor=#d6b656;" parent="OOdKAEBMmgLaQuy--NHw-1" vertex="1">
          <mxGeometry x="550" y="-30" width="120" height="40" as="geometry" />
        </mxCell>
        <mxCell id="OOdKAEBMmgLaQuy--NHw-27" value="emmo:PhysicalQuantity" style="ellipse;whiteSpace=wrap;html=1;fillColor=#fff2cc;strokeColor=#d6b656;" parent="OOdKAEBMmgLaQuy--NHw-1" vertex="1">
          <mxGeometry x="290" y="-130" width="146" height="40" as="geometry" />
        </mxCell>
        <mxCell id="OOdKAEBMmgLaQuy--NHw-28" style="edgeStyle=none;rounded=0;orthogonalLoop=1;jettySize=auto;html=1;endArrow=block;endFill=0;strokeWidth=2;" parent="OOdKAEBMmgLaQuy--NHw-1" source="OOdKAEBMmgLaQuy--NHw-29" target="OOdKAEBMmgLaQuy--NHw-33" edge="1">
          <mxGeometry relative="1" as="geometry" />
        </mxCell>
        <mxCell id="OOdKAEBMmgLaQuy--NHw-29" value="Reactant" style="ellipse;whiteSpace=wrap;html=1;fillColor=#fff2cc;strokeColor=#d6b656;" parent="OOdKAEBMmgLaQuy--NHw-1" vertex="1">
          <mxGeometry x="782.5" y="-30" width="80" height="40" as="geometry" />
        </mxCell>
        <mxCell id="OOdKAEBMmgLaQuy--NHw-30" style="edgeStyle=none;rounded=0;orthogonalLoop=1;jettySize=auto;html=1;endArrow=block;endFill=0;strokeWidth=2;" parent="OOdKAEBMmgLaQuy--NHw-1" source="OOdKAEBMmgLaQuy--NHw-31" target="OOdKAEBMmgLaQuy--NHw-33" edge="1">
          <mxGeometry relative="1" as="geometry" />
        </mxCell>
        <mxCell id="OOdKAEBMmgLaQuy--NHw-31" value="Product" style="ellipse;whiteSpace=wrap;html=1;fillColor=#fff2cc;strokeColor=#d6b656;" parent="OOdKAEBMmgLaQuy--NHw-1" vertex="1">
          <mxGeometry x="882.5" y="-30" width="85" height="40" as="geometry" />
        </mxCell>
        <mxCell id="OOdKAEBMmgLaQuy--NHw-32" style="edgeStyle=none;rounded=0;orthogonalLoop=1;jettySize=auto;html=1;endArrow=block;endFill=0;strokeWidth=2;" parent="OOdKAEBMmgLaQuy--NHw-1" source="OOdKAEBMmgLaQuy--NHw-33" target="OOdKAEBMmgLaQuy--NHw-34" edge="1">
          <mxGeometry relative="1" as="geometry" />
        </mxCell>
        <mxCell id="OOdKAEBMmgLaQuy--NHw-33" value="ChemicalSubstance" style="ellipse;whiteSpace=wrap;html=1;fillColor=#fff2cc;strokeColor=#d6b656;" parent="OOdKAEBMmgLaQuy--NHw-1" vertex="1">
          <mxGeometry x="827" y="-130" width="120" height="40" as="geometry" />
        </mxCell>
        <mxCell id="OOdKAEBMmgLaQuy--NHw-34" value="emmo:Matter" style="ellipse;whiteSpace=wrap;html=1;fillColor=#fff2cc;strokeColor=#d6b656;" parent="OOdKAEBMmgLaQuy--NHw-1" vertex="1">
          <mxGeometry x="790" y="-190" width="107" height="40" as="geometry" />
        </mxCell>
        <mxCell id="OOdKAEBMmgLaQuy--NHw-35" style="edgeStyle=orthogonalEdgeStyle;rounded=0;orthogonalLoop=1;jettySize=auto;html=1;entryX=0;entryY=0.5;entryDx=0;entryDy=0;exitX=1;exitY=0.5;exitDx=0;exitDy=0;" parent="OOdKAEBMmgLaQuy--NHw-1" source="OOdKAEBMmgLaQuy--NHw-19" target="OOdKAEBMmgLaQuy--NHw-64" edge="1">
          <mxGeometry relative="1" as="geometry">
            <mxPoint x="845" y="360" as="sourcePoint" />
            <mxPoint x="885" y="315" as="targetPoint" />
          </mxGeometry>
        </mxCell>
        <mxCell id="OOdKAEBMmgLaQuy--NHw-38" value="hasProperty exactly 1" style="edgeStyle=orthogonalEdgeStyle;rounded=0;orthogonalLoop=1;jettySize=auto;html=1;entryX=1;entryY=0;entryDx=0;entryDy=0;endArrow=classicThin;endFill=1;strokeWidth=2;curved=1;strokeColor=#3333FF;" parent="OOdKAEBMmgLaQuy--NHw-1" source="OOdKAEBMmgLaQuy--NHw-40" target="OOdKAEBMmgLaQuy--NHw-23" edge="1">
          <mxGeometry relative="1" as="geometry" />
        </mxCell>
        <mxCell id="OOdKAEBMmgLaQuy--NHw-39" value="isModelOf exactly 1" style="edgeStyle=orthogonalEdgeStyle;curved=1;rounded=0;orthogonalLoop=1;jettySize=auto;html=1;endArrow=classicThin;endFill=1;strokeColor=#3333FF;strokeWidth=2;entryX=0;entryY=0.5;entryDx=0;entryDy=0;" parent="OOdKAEBMmgLaQuy--NHw-1" source="OOdKAEBMmgLaQuy--NHw-40" target="OOdKAEBMmgLaQuy--NHw-33" edge="1">
          <mxGeometry x="-0.0787" y="-11" relative="1" as="geometry">
            <mxPoint x="1" y="1" as="offset" />
          </mxGeometry>
        </mxCell>
        <mxCell id="OOdKAEBMmgLaQuy--NHw-40" value="MoleculeModel" style="ellipse;whiteSpace=wrap;html=1;fillColor=#fff2cc;strokeColor=#d6b656;" parent="OOdKAEBMmgLaQuy--NHw-1" vertex="1">
          <mxGeometry x="650" y="-80" width="100" height="40" as="geometry" />
        </mxCell>
        <mxCell id="OOdKAEBMmgLaQuy--NHw-41" style="edgeStyle=none;rounded=0;orthogonalLoop=1;jettySize=auto;html=1;endArrow=block;endFill=0;strokeWidth=2;entryX=0.5;entryY=1;entryDx=0;entryDy=0;" parent="OOdKAEBMmgLaQuy--NHw-1" source="OOdKAEBMmgLaQuy--NHw-40" target="OOdKAEBMmgLaQuy--NHw-60" edge="1">
          <mxGeometry relative="1" as="geometry">
            <mxPoint x="873.4788315819244" y="-19.924217241931274" as="sourcePoint" />
            <mxPoint x="886.3702963759845" y="-90.03663006791476" as="targetPoint" />
          </mxGeometry>
        </mxCell>
        <mxCell id="OOdKAEBMmgLaQuy--NHw-48" style="edgeStyle=none;rounded=0;orthogonalLoop=1;jettySize=auto;html=1;endArrow=block;endFill=0;strokeColor=#000000;strokeWidth=2;" parent="OOdKAEBMmgLaQuy--NHw-1" source="OOdKAEBMmgLaQuy--NHw-49" target="OOdKAEBMmgLaQuy--NHw-27" edge="1">
          <mxGeometry relative="1" as="geometry" />
        </mxCell>
        <mxCell id="OOdKAEBMmgLaQuy--NHw-49" value="ReactionEnergy" style="ellipse;whiteSpace=wrap;html=1;fillColor=#fff2cc;strokeColor=#d6b656;" parent="OOdKAEBMmgLaQuy--NHw-1" vertex="1">
          <mxGeometry x="390" y="-30" width="120" height="40" as="geometry" />
        </mxCell>
        <mxCell id="OOdKAEBMmgLaQuy--NHw-53" style="edgeStyle=none;rounded=0;orthogonalLoop=1;jettySize=auto;html=1;endArrow=none;endFill=0;strokeWidth=1;dashed=1;exitX=0.5;exitY=0;exitDx=0;exitDy=0;" parent="OOdKAEBMmgLaQuy--NHw-1" source="OOdKAEBMmgLaQuy--NHw-61" target="OOdKAEBMmgLaQuy--NHw-62" edge="1">
          <mxGeometry relative="1" as="geometry">
            <mxPoint x="595" y="275" as="targetPoint" />
            <mxPoint x="610" y="420" as="sourcePoint" />
          </mxGeometry>
        </mxCell>
        <mxCell id="OOdKAEBMmgLaQuy--NHw-54" style="edgeStyle=none;rounded=0;orthogonalLoop=1;jettySize=auto;html=1;endArrow=none;endFill=0;strokeWidth=1;entryX=0.5;entryY=0;entryDx=0;entryDy=0;dashed=1;" parent="OOdKAEBMmgLaQuy--NHw-1" source="OOdKAEBMmgLaQuy--NHw-63" target="OOdKAEBMmgLaQuy--NHw-64" edge="1">
          <mxGeometry relative="1" as="geometry">
            <mxPoint x="925" y="275" as="targetPoint" />
            <mxPoint x="760" y="240" as="sourcePoint" />
          </mxGeometry>
        </mxCell>
        <mxCell id="OOdKAEBMmgLaQuy--NHw-60" value="emmo:Model" style="ellipse;whiteSpace=wrap;html=1;fillColor=#fff2cc;strokeColor=#d6b656;" parent="OOdKAEBMmgLaQuy--NHw-1" vertex="1">
          <mxGeometry x="663" y="-190" width="107" height="40" as="geometry" />
        </mxCell>
        <mxCell id="OOdKAEBMmgLaQuy--NHw-61" value="&lt;b&gt;Data object&lt;/b&gt;" style="shape=document;whiteSpace=wrap;html=1;boundedLbl=1;align=center;" parent="OOdKAEBMmgLaQuy--NHw-1" vertex="1">
          <mxGeometry x="555" y="300" width="90" height="30" as="geometry" />
        </mxCell>
        <mxCell id="OOdKAEBMmgLaQuy--NHw-62" value="&lt;b&gt;Datamodel: Molecule&lt;/b&gt;&lt;br&gt;number_of_atoms&lt;br&gt;chemical_symbols&lt;br&gt;positions&lt;br&gt;energy" style="whiteSpace=wrap;html=1;rounded=0;align=left;strokeColor=#82b366;fillColor=#d5e8d4;" parent="OOdKAEBMmgLaQuy--NHw-1" vertex="1">
          <mxGeometry x="520" y="210" width="130" height="75" as="geometry" />
        </mxCell>
        <mxCell id="OOdKAEBMmgLaQuy--NHw-63" value="&lt;b&gt;Datamodel: Reaction&lt;/b&gt;&lt;br&gt;reaction_energy&lt;br&gt;..." style="whiteSpace=wrap;html=1;rounded=0;align=left;strokeColor=#82b366;fillColor=#d5e8d4;" parent="OOdKAEBMmgLaQuy--NHw-1" vertex="1">
          <mxGeometry x="862.5" y="210" width="125" height="50" as="geometry" />
        </mxCell>
        <mxCell id="OOdKAEBMmgLaQuy--NHw-64" value="&lt;b&gt;Data object&lt;/b&gt;&lt;br&gt;Reaction_energy = 1.4 eV" style="shape=document;whiteSpace=wrap;html=1;boundedLbl=1;align=center;" parent="OOdKAEBMmgLaQuy--NHw-1" vertex="1">
          <mxGeometry x="850" y="290" width="150" height="50" as="geometry" />
        </mxCell>
        <mxCell id="OOdKAEBMmgLaQuy--NHw-65" value="" style="endArrow=classic;startArrow=classic;html=1;dashed=1;" parent="OOdKAEBMmgLaQuy--NHw-1" target="OOdKAEBMmgLaQuy--NHw-23" edge="1">
          <mxGeometry width="50" height="50" relative="1" as="geometry">
            <mxPoint x="520" y="280" as="sourcePoint" />
            <mxPoint x="702.6478453315319" y="-30.217398263193672" as="targetPoint" />
          </mxGeometry>
        </mxCell>
        <mxCell id="OOdKAEBMmgLaQuy--NHw-66" value="" style="rounded=0;orthogonalLoop=1;jettySize=auto;html=1;entryX=1;entryY=0.5;entryDx=0;entryDy=0;endArrow=classicThin;endFill=1;strokeWidth=2;strokeColor=#3333FF;exitX=0;exitY=0.5;exitDx=0;exitDy=0;" parent="OOdKAEBMmgLaQuy--NHw-1" source="OOdKAEBMmgLaQuy--NHw-26" target="OOdKAEBMmgLaQuy--NHw-49" edge="1">
          <mxGeometry relative="1" as="geometry">
            <mxPoint x="660.0002162634435" y="-49.94117647058829" as="sourcePoint" />
            <mxPoint x="352.42640687119297" y="-14.142135623731292" as="targetPoint" />
          </mxGeometry>
        </mxCell>
        <mxCell id="OOdKAEBMmgLaQuy--NHw-68" value="" style="rounded=0;whiteSpace=wrap;html=1;strokeColor=none;" parent="OOdKAEBMmgLaQuy--NHw-1" vertex="1">
          <mxGeometry x="947" y="-200" width="60" height="60" as="geometry" />
        </mxCell>
        <mxCell id="OOdKAEBMmgLaQuy--NHw-74" value="&lt;b&gt;Datamodel: Substance&lt;/b&gt;&lt;br&gt;binding_energy" style="whiteSpace=wrap;html=1;rounded=0;align=left;strokeColor=#82b366;fillColor=#d5e8d4;" parent="OOdKAEBMmgLaQuy--NHw-1" vertex="1">
          <mxGeometry x="590" y="70" width="145" height="40" as="geometry" />
        </mxCell>
        <mxCell id="b9f2PFGxHwjjUFPthtqG-0" value="&lt;b&gt;Data object&lt;/b&gt;" style="shape=document;whiteSpace=wrap;html=1;boundedLbl=1;align=center;" parent="OOdKAEBMmgLaQuy--NHw-1" vertex="1">
          <mxGeometry x="645" y="130" width="90" height="30" as="geometry" />
        </mxCell>
        <mxCell id="b9f2PFGxHwjjUFPthtqG-1" style="edgeStyle=none;rounded=0;orthogonalLoop=1;jettySize=auto;html=1;endArrow=none;endFill=0;strokeWidth=1;dashed=1;exitX=0.5;exitY=0;exitDx=0;exitDy=0;" parent="OOdKAEBMmgLaQuy--NHw-1" source="b9f2PFGxHwjjUFPthtqG-0" target="OOdKAEBMmgLaQuy--NHw-74" edge="1">
          <mxGeometry relative="1" as="geometry">
            <mxPoint x="605.7142857142858" y="295" as="targetPoint" />
            <mxPoint x="610" y="310" as="sourcePoint" />
          </mxGeometry>
        </mxCell>
        <mxCell id="b9f2PFGxHwjjUFPthtqG-2" style="rounded=0;orthogonalLoop=1;jettySize=auto;html=1;" parent="OOdKAEBMmgLaQuy--NHw-1" source="b9f2PFGxHwjjUFPthtqG-0" target="OOdKAEBMmgLaQuy--NHw-19" edge="1">
          <mxGeometry relative="1" as="geometry">
            <mxPoint x="665" y="325" as="sourcePoint" />
            <mxPoint x="715" y="325" as="targetPoint" />
          </mxGeometry>
        </mxCell>
        <mxCell id="NSqXR3IrzqI798F9cAJw-0" value="Substance DB" style="shape=datastore;whiteSpace=wrap;html=1;fillColor=#dae8fc;strokeColor=#6c8ebf;gradientColor=#7ea6e0;" parent="OOdKAEBMmgLaQuy--NHw-1" vertex="1">
          <mxGeometry x="789.5" y="115" width="107.5" height="60" as="geometry" />
        </mxCell>
        <mxCell id="NSqXR3IrzqI798F9cAJw-1" value="" style="edgeStyle=orthogonalEdgeStyle;rounded=0;orthogonalLoop=1;jettySize=auto;html=1;exitX=0;exitY=0.5;exitDx=0;exitDy=0;" parent="OOdKAEBMmgLaQuy--NHw-1" source="NSqXR3IrzqI798F9cAJw-0" target="b9f2PFGxHwjjUFPthtqG-0" edge="1">
          <mxGeometry relative="1" as="geometry">
            <mxPoint x="355" y="325" as="sourcePoint" />
            <mxPoint x="395" y="325" as="targetPoint" />
          </mxGeometry>
        </mxCell>
      </root>
    </mxGraphModel>
  </diagram>
  <diagram id="vn5p_w78ZFvCRLIvqgyL" name="Page-7">
    <mxGraphModel dx="1422" dy="774" grid="1" gridSize="10" guides="1" tooltips="1" connect="1" arrows="1" fold="1" page="1" pageScale="1" pageWidth="827" pageHeight="1169" math="0" shadow="0">
      <root>
        <mxCell id="islLQEvVSZGExu1GAFuH-0" />
        <mxCell id="islLQEvVSZGExu1GAFuH-1" parent="islLQEvVSZGExu1GAFuH-0" />
        <mxCell id="islLQEvVSZGExu1GAFuH-2" value="Chemical reaction" style="swimlane;fillColor=#f9f7ed;strokeColor=#36393d;" parent="islLQEvVSZGExu1GAFuH-1" vertex="1">
          <mxGeometry x="310" y="340" width="180" height="265" as="geometry" />
        </mxCell>
        <mxCell id="islLQEvVSZGExu1GAFuH-22" value="Calculate reaction energy" style="labelPosition=center;verticalLabelPosition=middle;align=center;html=1;shape=mxgraph.basic.shaded_button;dx=4.43;fillColor=#E6E6E6;strokeColor=none;" parent="islLQEvVSZGExu1GAFuH-2" vertex="1">
          <mxGeometry x="10" y="225" width="160" height="35" as="geometry" />
        </mxCell>
        <mxCell id="islLQEvVSZGExu1GAFuH-7" value="" style="rounded=0;whiteSpace=wrap;html=1;align=left;fillColor=#f9f7ed;strokeColor=#36393d;" parent="islLQEvVSZGExu1GAFuH-1" vertex="1">
          <mxGeometry x="320" y="370" width="160" height="90" as="geometry" />
        </mxCell>
        <mxCell id="islLQEvVSZGExu1GAFuH-9" value="Reactant" style="text;html=1;strokeColor=none;fillColor=none;align=left;verticalAlign=middle;whiteSpace=wrap;rounded=0;" parent="islLQEvVSZGExu1GAFuH-1" vertex="1">
          <mxGeometry x="330" y="370" width="60" height="30" as="geometry" />
        </mxCell>
        <mxCell id="islLQEvVSZGExu1GAFuH-10" value="Stoich. coeff." style="text;html=1;strokeColor=none;fillColor=none;align=left;verticalAlign=middle;whiteSpace=wrap;rounded=0;" parent="islLQEvVSZGExu1GAFuH-1" vertex="1">
          <mxGeometry x="400" y="370" width="80" height="30" as="geometry" />
        </mxCell>
        <mxCell id="islLQEvVSZGExu1GAFuH-11" value="C2H6" style="rounded=0;whiteSpace=wrap;html=1;align=left;" parent="islLQEvVSZGExu1GAFuH-1" vertex="1">
          <mxGeometry x="330" y="400" width="60" height="20" as="geometry" />
        </mxCell>
        <mxCell id="islLQEvVSZGExu1GAFuH-12" value="1" style="rounded=0;whiteSpace=wrap;html=1;align=left;" parent="islLQEvVSZGExu1GAFuH-1" vertex="1">
          <mxGeometry x="400" y="400" width="60" height="20" as="geometry" />
        </mxCell>
        <mxCell id="islLQEvVSZGExu1GAFuH-13" value="" style="rounded=0;whiteSpace=wrap;html=1;align=left;" parent="islLQEvVSZGExu1GAFuH-1" vertex="1">
          <mxGeometry x="330" y="430" width="60" height="20" as="geometry" />
        </mxCell>
        <mxCell id="islLQEvVSZGExu1GAFuH-14" value="" style="rounded=0;whiteSpace=wrap;html=1;align=left;" parent="islLQEvVSZGExu1GAFuH-1" vertex="1">
          <mxGeometry x="400" y="430" width="60" height="20" as="geometry" />
        </mxCell>
        <mxCell id="islLQEvVSZGExu1GAFuH-15" value="" style="rounded=0;whiteSpace=wrap;html=1;align=left;fillColor=#f9f7ed;strokeColor=#36393d;" parent="islLQEvVSZGExu1GAFuH-1" vertex="1">
          <mxGeometry x="320" y="470" width="160" height="90" as="geometry" />
        </mxCell>
        <mxCell id="islLQEvVSZGExu1GAFuH-16" value="Product" style="text;html=1;strokeColor=none;fillColor=none;align=left;verticalAlign=middle;whiteSpace=wrap;rounded=0;" parent="islLQEvVSZGExu1GAFuH-1" vertex="1">
          <mxGeometry x="330" y="470" width="60" height="30" as="geometry" />
        </mxCell>
        <mxCell id="islLQEvVSZGExu1GAFuH-17" value="Stoich. coeff." style="text;html=1;strokeColor=none;fillColor=none;align=left;verticalAlign=middle;whiteSpace=wrap;rounded=0;" parent="islLQEvVSZGExu1GAFuH-1" vertex="1">
          <mxGeometry x="400" y="470" width="80" height="30" as="geometry" />
        </mxCell>
        <mxCell id="islLQEvVSZGExu1GAFuH-18" value="C2H4" style="rounded=0;whiteSpace=wrap;html=1;align=left;" parent="islLQEvVSZGExu1GAFuH-1" vertex="1">
          <mxGeometry x="330" y="500" width="60" height="20" as="geometry" />
        </mxCell>
        <mxCell id="islLQEvVSZGExu1GAFuH-19" value="1" style="rounded=0;whiteSpace=wrap;html=1;align=left;" parent="islLQEvVSZGExu1GAFuH-1" vertex="1">
          <mxGeometry x="400" y="500" width="60" height="20" as="geometry" />
        </mxCell>
        <mxCell id="islLQEvVSZGExu1GAFuH-20" value="H2" style="rounded=0;whiteSpace=wrap;html=1;align=left;" parent="islLQEvVSZGExu1GAFuH-1" vertex="1">
          <mxGeometry x="330" y="530" width="60" height="20" as="geometry" />
        </mxCell>
        <mxCell id="islLQEvVSZGExu1GAFuH-21" value="1" style="rounded=0;whiteSpace=wrap;html=1;align=left;" parent="islLQEvVSZGExu1GAFuH-1" vertex="1">
          <mxGeometry x="400" y="530" width="60" height="20" as="geometry" />
        </mxCell>
      </root>
    </mxGraphModel>
  </diagram>
</mxfile>
